<?xml version="1.0" standalone="no"?>
<!DOCTYPE svg PUBLIC "-//W3C//DTD SVG 1.1//EN" "http://www.w3.org/Graphics/SVG/1.1/DTD/svg11.dtd"><svg width="100%" height="100%" version="1.1" xmlns="http://www.w3.org/2000/svg">
<line x1="0" y1="10" x2="18" y2="10" stroke="#d8b009" stroke-width="3" fill="none"/>
<path d="M0.5,15C0.5,50,9.5,50,9.5,95" stroke="#d8b009" stroke-width="1" fill="none" opacity="0.5" />
<path d="M4.5,15C4.5,50,30.5,50,30.5,95" stroke="#d8b009" stroke-width="7" fill="none" opacity="0.5" />
<path d="M8.5,15C8.5,50,55.5,50,55.5,95" stroke="#d8b009" stroke-width="1" fill="none" opacity="0.5" />
<path d="M10,15C10,50,79,50,79,95" stroke="#d8b009" stroke-width="2" fill="none" opacity="0.5" />
<path d="M11.5,15C11.5,50,122.5,50,122.5,95" stroke="#d8b009" stroke-width="1" fill="none" opacity="0.5" />
<path d="M14,15C14,50,207,50,207,95" stroke="#d8b009" stroke-width="4" fill="none" opacity="0.5" />
<path d="M17,15C17,50,218,50,218,95" stroke="#d8b009" stroke-width="2" fill="none" opacity="0.5" />
<line x1="23" y1="10" x2="31" y2="10" stroke="#3536be" stroke-width="3" fill="none"/>
<path d="M23.5,15C23.5,50,63.5,50,63.5,95" stroke="#3536be" stroke-width="1" fill="none" opacity="0.5" />
<path d="M24.5,15C24.5,50,90.5,50,90.5,95" stroke="#3536be" stroke-width="1" fill="none" opacity="0.5" />
<path d="M26.5,15C26.5,50,142.5,50,142.5,95" stroke="#3536be" stroke-width="3" fill="none" opacity="0.5" />
<path d="M29,15C29,50,197,50,197,95" stroke="#3536be" stroke-width="2" fill="none" opacity="0.5" />
<path d="M30.5,15C30.5,50,323.5,50,323.5,95" stroke="#3536be" stroke-width="1" fill="none" opacity="0.5" />
<line x1="36" y1="10" x2="51" y2="10" stroke="#a67d4c" stroke-width="3" fill="none"/>
<path d="M37.5,15C37.5,50,35.5,50,35.5,95" stroke="#a67d4c" stroke-width="3" fill="none" opacity="0.5" />
<path d="M40,15C40,50,103,50,103,95" stroke="#a67d4c" stroke-width="2" fill="none" opacity="0.5" />
<path d="M42,15C42,50,134,50,134,95" stroke="#a67d4c" stroke-width="2" fill="none" opacity="0.5" />
<path d="M44.5,15C44.5,50,173.5,50,173.5,95" stroke="#a67d4c" stroke-width="3" fill="none" opacity="0.5" />
<path d="M48.5,15C48.5,50,300.5,50,300.5,95" stroke="#a67d4c" stroke-width="5" fill="none" opacity="0.5" />
<line x1="56" y1="10" x2="68" y2="10" stroke="#42537f" stroke-width="3" fill="none"/>
<path d="M56.5,15C56.5,50,0.5,50,0.5,95" stroke="#42537f" stroke-width="1" fill="none" opacity="0.5" />
<path d="M57.5,15C57.5,50,18.5,50,18.5,95" stroke="#42537f" stroke-width="1" fill="none" opacity="0.5" />
<path d="M59,15C59,50,47,50,47,95" stroke="#42537f" stroke-width="2" fill="none" opacity="0.5" />
<path d="M60.5,15C60.5,50,104.5,50,104.5,95" stroke="#42537f" stroke-width="1" fill="none" opacity="0.5" />
<path d="M62.5,15C62.5,50,162.5,50,162.5,95" stroke="#42537f" stroke-width="3" fill="none" opacity="0.5" />
<path d="M66,15C66,50,286,50,286,95" stroke="#42537f" stroke-width="4" fill="none" opacity="0.5" />
<line x1="73" y1="10" x2="85" y2="10" stroke="#ef3388" stroke-width="3" fill="none"/>
<path d="M73.5,15C73.5,50,37.5,50,37.5,95" stroke="#ef3388" stroke-width="1" fill="none" opacity="0.5" />
<path d="M75,15C75,50,112,50,112,95" stroke="#ef3388" stroke-width="2" fill="none" opacity="0.5" />
<path d="M77.5,15C77.5,50,152.5,50,152.5,95" stroke="#ef3388" stroke-width="3" fill="none" opacity="0.5" />
<path d="M80,15C80,50,187,50,187,95" stroke="#ef3388" stroke-width="2" fill="none" opacity="0.5" />
<path d="M83,15C83,50,258,50,258,95" stroke="#ef3388" stroke-width="4" fill="none" opacity="0.5" />
<line x1="90" y1="10" x2="100" y2="10" stroke="#0309a6" stroke-width="3" fill="none"/>
<path d="M92.5,15C92.5,50,93.5,50,93.5,95" stroke="#0309a6" stroke-width="5" fill="none" opacity="0.5" />
<path d="M96,15C96,50,145,50,145,95" stroke="#0309a6" stroke-width="2" fill="none" opacity="0.5" />
<path d="M98.5,15C98.5,50,311.5,50,311.5,95" stroke="#0309a6" stroke-width="3" fill="none" opacity="0.5" />
<line x1="105" y1="10" x2="111" y2="10" stroke="#6c1674" stroke-width="3" fill="none"/>
<path d="M106,15C106,50,81,50,81,95" stroke="#6c1674" stroke-width="2" fill="none" opacity="0.5" />
<path d="M108,15C108,50,124,50,124,95" stroke="#6c1674" stroke-width="2" fill="none" opacity="0.5" />
<path d="M109.5,15C109.5,50,245.5,50,245.5,95" stroke="#6c1674" stroke-width="1" fill="none" opacity="0.5" />
<path d="M110.5,15C110.5,50,276.5,50,276.5,95" stroke="#6c1674" stroke-width="1" fill="none" opacity="0.5" />
<line x1="116" y1="10" x2="121" y2="10" stroke="#5882b5" stroke-width="3" fill="none"/>
<path d="M117.5,15C117.5,50,114.5,50,114.5,95" stroke="#5882b5" stroke-width="3" fill="none" opacity="0.5" />
<path d="M119.5,15C119.5,50,154.5,50,154.5,95" stroke="#5882b5" stroke-width="1" fill="none" opacity="0.5" />
<path d="M120.5,15C120.5,50,267.5,50,267.5,95" stroke="#5882b5" stroke-width="1" fill="none" opacity="0.5" />
<line x1="126" y1="10" x2="133" y2="10" stroke="#575b94" stroke-width="3" fill="none"/>
<path d="M126.5,15C126.5,50,1.5,50,1.5,95" stroke="#575b94" stroke-width="1" fill="none" opacity="0.5" />
<path d="M127.5,15C127.5,50,64.5,50,64.5,95" stroke="#575b94" stroke-width="1" fill="none" opacity="0.5" />
<path d="M130,15C130,50,248,50,248,95" stroke="#575b94" stroke-width="4" fill="none" opacity="0.5" />
<path d="M132.5,15C132.5,50,277.5,50,277.5,95" stroke="#575b94" stroke-width="1" fill="none" opacity="0.5" />
<line x1="138" y1="10" x2="145" y2="10" stroke="#3ad083" stroke-width="3" fill="none"/>
<path d="M139,15C139,50,57,50,57,95" stroke="#3ad083" stroke-width="2" fill="none" opacity="0.5" />
<path d="M141,15C141,50,238,50,238,95" stroke="#3ad083" stroke-width="2" fill="none" opacity="0.5" />
<path d="M143.5,15C143.5,50,314.5,50,314.5,95" stroke="#3ad083" stroke-width="3" fill="none" opacity="0.5" />
<line x1="150" y1="10" x2="156" y2="10" stroke="#2e6507" stroke-width="3" fill="none"/>
<path d="M150.5,15C150.5,50,38.5,50,38.5,95" stroke="#2e6507" stroke-width="1" fill="none" opacity="0.5" />
<path d="M152.5,15C152.5,50,176.5,50,176.5,95" stroke="#2e6507" stroke-width="3" fill="none" opacity="0.5" />
<path d="M155,15C155,50,304,50,304,95" stroke="#2e6507" stroke-width="2" fill="none" opacity="0.5" />
<line x1="161" y1="10" x2="165" y2="10" stroke="#75497a" stroke-width="3" fill="none"/>
<path d="M161.5,15C161.5,50,71.5,50,71.5,95" stroke="#75497a" stroke-width="1" fill="none" opacity="0.5" />
<path d="M163,15C163,50,229,50,229,95" stroke="#75497a" stroke-width="2" fill="none" opacity="0.5" />
<path d="M164.5,15C164.5,50,268.5,50,268.5,95" stroke="#75497a" stroke-width="1" fill="none" opacity="0.5" />
<line x1="170" y1="10" x2="175" y2="10" stroke="#f253ef" stroke-width="3" fill="none"/>
<path d="M170.5,15C170.5,50,65.5,50,65.5,95" stroke="#f253ef" stroke-width="1" fill="none" opacity="0.5" />
<path d="M172,15C172,50,210,50,210,95" stroke="#f253ef" stroke-width="2" fill="none" opacity="0.5" />
<path d="M174,15C174,50,220,50,220,95" stroke="#f253ef" stroke-width="2" fill="none" opacity="0.5" />
<line x1="180" y1="10" x2="184" y2="10" stroke="#8dbb07" stroke-width="3" fill="none"/>
<path d="M181.5,15C181.5,50,165.5,50,165.5,95" stroke="#8dbb07" stroke-width="3" fill="none" opacity="0.5" />
<path d="M183.5,15C183.5,50,288.5,50,288.5,95" stroke="#8dbb07" stroke-width="1" fill="none" opacity="0.5" />
<line x1="189" y1="10" x2="192" y2="10" stroke="#5d8391" stroke-width="3" fill="none"/>
<path d="M190,15C190,50,11,50,11,95" stroke="#5d8391" stroke-width="2" fill="none" opacity="0.5" />
<path d="M191.5,15C191.5,50,198.5,50,198.5,95" stroke="#5d8391" stroke-width="1" fill="none" opacity="0.5" />
<line x1="197" y1="10" x2="200" y2="10" stroke="#6b7186" stroke-width="3" fill="none"/>
<path d="M197.5,15C197.5,50,72.5,50,72.5,95" stroke="#6b7186" stroke-width="1" fill="none" opacity="0.5" />
<path d="M199,15C199,50,189,50,189,95" stroke="#6b7186" stroke-width="2" fill="none" opacity="0.5" />
<line x1="205" y1="10" x2="211" y2="10" stroke="#560d4c" stroke-width="3" fill="none"/>
<path d="M205.5,15C205.5,50,39.5,50,39.5,95" stroke="#560d4c" stroke-width="1" fill="none" opacity="0.5" />
<path d="M206.5,15C206.5,50,135.5,50,135.5,95" stroke="#560d4c" stroke-width="1" fill="none" opacity="0.5" />
<path d="M209,15C209,50,291,50,291,95" stroke="#560d4c" stroke-width="4" fill="none" opacity="0.5" />
<line x1="216" y1="10" x2="222" y2="10" stroke="#4442e4" stroke-width="3" fill="none"/>
<path d="M217,15C217,50,20,50,20,95" stroke="#4442e4" stroke-width="2" fill="none" opacity="0.5" />
<path d="M218.5,15C218.5,50,105.5,50,105.5,95" stroke="#4442e4" stroke-width="1" fill="none" opacity="0.5" />
<path d="M220.5,15C220.5,50,179.5,50,179.5,95" stroke="#4442e4" stroke-width="3" fill="none" opacity="0.5" />
<line x1="227" y1="10" x2="231" y2="10" stroke="#cea34f" stroke-width="3" fill="none"/>
<path d="M227.5,15C227.5,50,48.5,50,48.5,95" stroke="#cea34f" stroke-width="1" fill="none" opacity="0.5" />
<path d="M228.5,15C228.5,50,155.5,50,155.5,95" stroke="#cea34f" stroke-width="1" fill="none" opacity="0.5" />
<path d="M230,15C230,50,261,50,261,95" stroke="#cea34f" stroke-width="2" fill="none" opacity="0.5" />
<line x1="236" y1="10" x2="240" y2="10" stroke="#96a6dd" stroke-width="3" fill="none"/>
<path d="M236.5,15C236.5,50,12.5,50,12.5,95" stroke="#96a6dd" stroke-width="1" fill="none" opacity="0.5" />
<path d="M238.5,15C238.5,50,325.5,50,325.5,95" stroke="#96a6dd" stroke-width="3" fill="none" opacity="0.5" />
<line x1="245" y1="10" x2="249" y2="10" stroke="#ea71b3" stroke-width="3" fill="none"/>
<path d="M246,15C246,50,126,50,126,95" stroke="#ea71b3" stroke-width="2" fill="none" opacity="0.5" />
<path d="M248,15C248,50,222,50,222,95" stroke="#ea71b3" stroke-width="2" fill="none" opacity="0.5" />
<line x1="254" y1="10" x2="258" y2="10" stroke="#e74004" stroke-width="3" fill="none"/>
<path d="M255,15C255,50,3,50,3,95" stroke="#e74004" stroke-width="2" fill="none" opacity="0.5" />
<path d="M256.5,15C256.5,50,127.5,50,127.5,95" stroke="#e74004" stroke-width="1" fill="none" opacity="0.5" />
<path d="M257.5,15C257.5,50,211.5,50,211.5,95" stroke="#e74004" stroke-width="1" fill="none" opacity="0.5" />
<line x1="263" y1="10" x2="266" y2="10" stroke="#64f607" stroke-width="3" fill="none"/>
<path d="M263.5,15C263.5,50,116.5,50,116.5,95" stroke="#64f607" stroke-width="1" fill="none" opacity="0.5" />
<path d="M265,15C265,50,270,50,270,95" stroke="#64f607" stroke-width="2" fill="none" opacity="0.5" />
<line x1="271" y1="10" x2="274" y2="10" stroke="#4d5d85" stroke-width="3" fill="none"/>
<path d="M271.5,15C271.5,50,96.5,50,96.5,95" stroke="#4d5d85" stroke-width="1" fill="none" opacity="0.5" />
<path d="M273,15C273,50,317,50,317,95" stroke="#4d5d85" stroke-width="2" fill="none" opacity="0.5" />
<line x1="279" y1="10" x2="282" y2="10" stroke="#e01529" stroke-width="3" fill="none"/>
<path d="M280,15C280,50,83,50,83,95" stroke="#e01529" stroke-width="2" fill="none" opacity="0.5" />
<path d="M281.5,15C281.5,50,278.5,50,278.5,95" stroke="#e01529" stroke-width="1" fill="none" opacity="0.5" />
<line x1="287" y1="10" x2="289" y2="10" stroke="#53a577" stroke-width="3" fill="none"/>
<path d="M287.5,15C287.5,50,49.5,50,49.5,95" stroke="#53a577" stroke-width="1" fill="none" opacity="0.5" />
<path d="M288.5,15C288.5,50,190.5,50,190.5,95" stroke="#53a577" stroke-width="1" fill="none" opacity="0.5" />
<line x1="294" y1="10" x2="296" y2="10" stroke="#1007e1" stroke-width="3" fill="none"/>
<path d="M295,15C295,50,231,50,231,95" stroke="#1007e1" stroke-width="2" fill="none" opacity="0.5" />
<line x1="301" y1="10" x2="303" y2="10" stroke="#5feb16" stroke-width="3" fill="none"/>
<path d="M301.5,15C301.5,50,84.5,50,84.5,95" stroke="#5feb16" stroke-width="1" fill="none" opacity="0.5" />
<path d="M302.5,15C302.5,50,250.5,50,250.5,95" stroke="#5feb16" stroke-width="1" fill="none" opacity="0.5" />
<line x1="308" y1="10" x2="309" y2="10" stroke="#4be25f" stroke-width="3" fill="none"/>
<path d="M308.5,15C308.5,50,40.5,50,40.5,95" stroke="#4be25f" stroke-width="1" fill="none" opacity="0.5" />
<line x1="314" y1="10" x2="315" y2="10" stroke="#907eba" stroke-width="3" fill="none"/>
<path d="M314.5,15C314.5,50,21.5,50,21.5,95" stroke="#907eba" stroke-width="1" fill="none" opacity="0.5" />
<line x1="320" y1="10" x2="321" y2="10" stroke="#f4270c" stroke-width="3" fill="none"/>
<path d="M320.5,15C320.5,50,239.5,50,239.5,95" stroke="#f4270c" stroke-width="1" fill="none" opacity="0.5" />
<line x1="326" y1="10" x2="327" y2="10" stroke="#21fc68" stroke-width="3" fill="none"/>
<path d="M326.5,15C326.5,50,199.5,50,199.5,95" stroke="#21fc68" stroke-width="1" fill="none" opacity="0.5" />
<line x1="0" y1="100" x2="4" y2="100" stroke="#d8b009" stroke-width="3" fill="none"/>
<line x1="9" y1="100" x2="13" y2="100" stroke="#3536be" stroke-width="3" fill="none"/>
<line x1="18" y1="100" x2="22" y2="100" stroke="#a67d4c" stroke-width="3" fill="none"/>
<line x1="27" y1="100" x2="41" y2="100" stroke="#42537f" stroke-width="3" fill="none"/>
<line x1="46" y1="100" x2="50" y2="100" stroke="#ef3388" stroke-width="3" fill="none"/>
<line x1="55" y1="100" x2="58" y2="100" stroke="#0309a6" stroke-width="3" fill="none"/>
<line x1="63" y1="100" x2="66" y2="100" stroke="#6c1674" stroke-width="3" fill="none"/>
<line x1="71" y1="100" x2="73" y2="100" stroke="#5882b5" stroke-width="3" fill="none"/>
<line x1="78" y1="100" x2="85" y2="100" stroke="#575b94" stroke-width="3" fill="none"/>
<line x1="90" y1="100" x2="97" y2="100" stroke="#3ad083" stroke-width="3" fill="none"/>
<line x1="102" y1="100" x2="106" y2="100" stroke="#2e6507" stroke-width="3" fill="none"/>
<line x1="111" y1="100" x2="117" y2="100" stroke="#75497a" stroke-width="3" fill="none"/>
<line x1="122" y1="100" x2="128" y2="100" stroke="#f253ef" stroke-width="3" fill="none"/>
<line x1="133" y1="100" x2="136" y2="100" stroke="#8dbb07" stroke-width="3" fill="none"/>
<line x1="141" y1="100" x2="146" y2="100" stroke="#5d8391" stroke-width="3" fill="none"/>
<line x1="151" y1="100" x2="156" y2="100" stroke="#6b7186" stroke-width="3" fill="none"/>
<line x1="161" y1="100" x2="167" y2="100" stroke="#560d4c" stroke-width="3" fill="none"/>
<line x1="172" y1="100" x2="181" y2="100" stroke="#4442e4" stroke-width="3" fill="none"/>
<line x1="186" y1="100" x2="191" y2="100" stroke="#cea34f" stroke-width="3" fill="none"/>
<line x1="196" y1="100" x2="200" y2="100" stroke="#96a6dd" stroke-width="3" fill="none"/>
<line x1="205" y1="100" x2="212" y2="100" stroke="#ea71b3" stroke-width="3" fill="none"/>
<line x1="217" y1="100" x2="223" y2="100" stroke="#e74004" stroke-width="3" fill="none"/>
<line x1="228" y1="100" x2="232" y2="100" stroke="#64f607" stroke-width="3" fill="none"/>
<line x1="237" y1="100" x2="240" y2="100" stroke="#4d5d85" stroke-width="3" fill="none"/>
<line x1="245" y1="100" x2="251" y2="100" stroke="#e01529" stroke-width="3" fill="none"/>
<line x1="256" y1="100" x2="262" y2="100" stroke="#53a577" stroke-width="3" fill="none"/>
<line x1="267" y1="100" x2="271" y2="100" stroke="#1007e1" stroke-width="3" fill="none"/>
<line x1="276" y1="100" x2="279" y2="100" stroke="#5feb16" stroke-width="3" fill="none"/>
<line x1="284" y1="100" x2="293" y2="100" stroke="#4be25f" stroke-width="3" fill="none"/>
<line x1="298" y1="100" x2="305" y2="100" stroke="#907eba" stroke-width="3" fill="none"/>
<line x1="310" y1="100" x2="318" y2="100" stroke="#f4270c" stroke-width="3" fill="none"/>
<line x1="323" y1="100" x2="327" y2="100" stroke="#21fc68" stroke-width="3" fill="none"/>
</svg>