<!DOCTYPE svg PUBLIC "-//W3C//DTD SVG 1.1//EN" 
"http://www.w3.org/Graphics/SVG/1.1/DTD/svg11.dtd"> 
<svg xmlns="http://www.w3.org/2000/svg" version="1.1"><line x1="0" y1="33.333333333333" x2="0" y2="50" style="stroke:rgb(0,0,0);stroke-width:1" />
<line x1="8.9639940205089" y1="32.105418893255" x2="8.3384373358051" y2="49.299801853525" style="stroke:rgb(0,0,0);stroke-width:1" />
<line x1="17.267566979104" y1="28.51214200535" x2="16.443332336929" y2="47.218818511874" style="stroke:rgb(0,0,0);stroke-width:1" />
<line x1="24.29895424738" y1="22.81823686429" x2="24.087683705086" y2="43.815334002193" style="stroke:rgb(0,0,0);stroke-width:1" />
<line x1="29.540119307707" y1="15.443201170662" x2="31.057389013916" y2="39.184672866292" style="stroke:rgb(0,0,0);stroke-width:1" />
<line x1="32.60492002446" y1="6.9303896939253" x2="37.15724127387" y2="33.456530317943" style="stroke:rgb(0,0,0);stroke-width:1" />
<line x1="33.267557614276" y1="-2.0930173176438" x2="42.216396275101" y2="26.79133974895" style="stroke:rgb(0,0,0);stroke-width:1" />
<line x1="31.479212341249" y1="-10.962221557953" x2="46.093157579425" y2="19.375779322605" style="stroke:rgb(0,0,0);stroke-width:1" />
<line x1="27.371640304457" y1="-19.023785589481" x2="48.678945143658" y2="11.417543505533" style="stroke:rgb(0,0,0);stroke-width:1" />
<line x1="21.247466324956" y1="-25.683774759193" x2="49.901336421414" y2="3.1395259764657" style="stroke:rgb(0,0,0);stroke-width:1" />
<line x1="13.557888102527" y1="-30.451515254753" x2="49.726094768414" y2="-5.2264231633827" style="stroke:rgb(0,0,0);stroke-width:1" />
<line x1="4.8694342854137" y1="-32.9757444321" x2="48.158128339883" y2="-13.445991030763" style="stroke:rgb(0,0,0);stroke-width:1" />
<line x1="-4.1777744521435" y1="-33.070490043816" x2="45.241352623301" y2="-21.288964578254" style="stroke:rgb(0,0,0);stroke-width:1" />
<line x1="-12.91718621507" y1="-30.728771719617" x2="41.057460456685" y2="-28.535678384222" style="stroke:rgb(0,0,0);stroke-width:1" />
<line x1="-20.704926009277" y1="-26.123115244195" x2="35.72363398164" y2="-34.983167025668" style="stroke:rgb(0,0,0);stroke-width:1" />
<line x1="-26.967233145832" y1="-19.592841743082" x2="29.389262614624" y2="-40.450849718747" style="stroke:rgb(0,0,0);stroke-width:1" />
<line x1="-31.242732983063" y1="-11.619068244061" x2="22.231758959246" y2="-44.785588011971" style="stroke:rgb(0,0,0);stroke-width:1" />
<line x1="-33.21642864165" y1="-2.7892614444105" x2="14.451589847224" y2="-47.865974876603" style="stroke:rgb(0,0,0);stroke-width:1" />
<line x1="-32.742908357623" y1="6.2460438195241" x2="6.2666616782152" y2="-49.605735065724" style="stroke:rgb(0,0,0);stroke-width:1" />
<line x1="-29.857058674647" y1="14.821172639498" x2="-2.09378268646" y2="-49.956141504943" style="stroke:rgb(0,0,0);stroke-width:1" />
<line x1="-24.77149418258" y1="22.304353545295" x2="-10.395584540888" y2="-48.90738003669" style="stroke:rgb(0,0,0);stroke-width:1" />
<line x1="-17.860893165967" y1="28.1442641834" x2="-18.406227634234" y2="-46.488824294413" style="stroke:rgb(0,0,0);stroke-width:1" />
<line x1="-9.6343932314824" y1="31.910649917736" x2="-25.901350468656" y2="-42.768213008025" style="stroke:rgb(0,0,0);stroke-width:1" />
<line x1="-0.69808066277856" y1="33.326022782495" x2="-32.671030199505" y2="-37.849752782588" style="stroke:rgb(0,0,0);stroke-width:1" />
<line x1="8.2896629054952" y1="32.286105370954" x2="-38.525662138789" y2="-31.871199487435" style="stroke:rgb(0,0,0);stroke-width:1" />
<line x1="16.666666666667" y1="28.867513459481" x2="-43.301270189222" y2="-25" style="stroke:rgb(0,0,0);stroke-width:1" />
<line x1="23.81575598776" y1="23.322111350446" x2="-46.864099474595" y2="-17.428602366091" style="stroke:rgb(0,0,0);stroke-width:1" />
<line x1="29.210222668129" y1="16.058455803391" x2="-49.114362536434" y2="-9.3690657292862" style="stroke:rgb(0,0,0);stroke-width:1" />
<line x1="32.452630095772" y1="7.6116956703552" x2="-49.989034173742" y2="-1.0471209941678" style="stroke:rgb(0,0,0);stroke-width:1" />
<line x1="33.304094336629" y1="-1.3958551243066" x2="-49.463616648149" y2="7.3041514281206" style="stroke:rgb(0,0,0);stroke-width:1" />
<line x1="31.701883876505" y1="-10.300566479165" x2="-47.552825814758" y2="15.450849718747" style="stroke:rgb(0,0,0);stroke-width:1" />
<line x1="27.764041357003" y1="-18.446384974778" x2="-44.310178961561" y2="23.164801755993" style="stroke:rgb(0,0,0);stroke-width:1" />
<line x1="21.78068679967" y1="-25.233168521725" x2="-39.82649590121" y2="30.229955743119" style="stroke:rgb(0,0,0);stroke-width:1" />
<line x1="14.192643052169" y1="-30.160901748867" x2="-34.227355296434" y2="36.448431371071" style="stroke:rgb(0,0,0);stroke-width:1" />
<line x1="5.5589582238701" y1="-32.866534569017" x2="-27.669577462167" y2="41.646062035505" style="stroke:rgb(0,0,0);stroke-width:1" />
<line x1="-3.4842821089217" y1="-33.150729845609" x2="-20.33683215379" y2="45.67727288213" style="stroke:rgb(0,0,0);stroke-width:1" />
<line x1="-12.270818422823" y1="-30.992549529608" x2="-12.434494358243" y2="48.429158056432" style="stroke:rgb(0,0,0);stroke-width:1" />
<line x1="-20.153303828746" y1="-26.550997267473" x2="-4.1838921666158" y2="49.824642962475" style="stroke:rgb(0,0,0);stroke-width:1" />
<line x1="-26.550997267473" y1="-20.153303828746" x2="4.1838921666158" y2="49.824642962475" style="stroke:rgb(0,0,0);stroke-width:1" />
<line x1="-30.992549529608" y1="-12.270818422823" x2="12.434494358243" y2="48.429158056432" style="stroke:rgb(0,0,0);stroke-width:1" />
<line x1="-33.150729845609" y1="-3.4842821089218" x2="20.33683215379" y2="45.67727288213" style="stroke:rgb(0,0,0);stroke-width:1" />
<line x1="-32.866534569017" y1="5.5589582238701" x2="27.669577462167" y2="41.646062035505" style="stroke:rgb(0,0,0);stroke-width:1" />
<line x1="-30.160901748867" y1="14.192643052169" x2="34.227355296434" y2="36.448431371071" style="stroke:rgb(0,0,0);stroke-width:1" />
<line x1="-25.233168521725" y1="21.78068679967" x2="39.82649590121" y2="30.229955743119" style="stroke:rgb(0,0,0);stroke-width:1" />
<line x1="-18.446384974778" y1="27.764041357003" x2="44.310178961561" y2="23.164801755993" style="stroke:rgb(0,0,0);stroke-width:1" />
<line x1="-10.300566479165" y1="31.701883876505" x2="47.552825814758" y2="15.450849718747" style="stroke:rgb(0,0,0);stroke-width:1" />
<line x1="-1.3958551243066" y1="33.304094336629" x2="49.463616648149" y2="7.3041514281206" style="stroke:rgb(0,0,0);stroke-width:1" />
<line x1="7.6116956703552" y1="32.452630095772" x2="49.989034173742" y2="-1.0471209941679" style="stroke:rgb(0,0,0);stroke-width:1" />
<line x1="16.058455803391" y1="29.210222668129" x2="49.114362536434" y2="-9.3690657292862" style="stroke:rgb(0,0,0);stroke-width:1" />
<line x1="23.322111350445" y1="23.81575598776" x2="46.864099474595" y2="-17.428602366091" style="stroke:rgb(0,0,0);stroke-width:1" />
<line x1="28.867513459481" y1="16.666666666667" x2="43.301270189222" y2="-25" style="stroke:rgb(0,0,0);stroke-width:1" />
<line x1="32.286105370954" y1="8.2896629054952" x2="38.525662138789" y2="-31.871199487434" style="stroke:rgb(0,0,0);stroke-width:1" />
<line x1="33.326022782495" y1="-0.69808066277844" x2="32.671030199505" y2="-37.849752782588" style="stroke:rgb(0,0,0);stroke-width:1" />
<line x1="31.910649917736" y1="-9.6343932314823" x2="25.901350468657" y2="-42.768213008025" style="stroke:rgb(0,0,0);stroke-width:1" />
<line x1="28.144264183401" y1="-17.860893165966" x2="18.406227634234" y2="-46.488824294413" style="stroke:rgb(0,0,0);stroke-width:1" />
<line x1="22.304353545295" y1="-24.77149418258" x2="10.395584540888" y2="-48.90738003669" style="stroke:rgb(0,0,0);stroke-width:1" />
<line x1="14.821172639498" y1="-29.857058674647" x2="2.09378268646" y2="-49.956141504943" style="stroke:rgb(0,0,0);stroke-width:1" />
<line x1="6.2460438195242" y1="-32.742908357623" x2="-6.2666616782152" y2="-49.605735065724" style="stroke:rgb(0,0,0);stroke-width:1" />
<line x1="-2.7892614444104" y1="-33.21642864165" x2="-14.451589847224" y2="-47.865974876603" style="stroke:rgb(0,0,0);stroke-width:1" />
<line x1="-11.61906824406" y1="-31.242732983063" x2="-22.231758959246" y2="-44.785588011971" style="stroke:rgb(0,0,0);stroke-width:1" />
<line x1="-19.592841743082" y1="-26.967233145832" x2="-29.389262614624" y2="-40.450849718747" style="stroke:rgb(0,0,0);stroke-width:1" />
<line x1="-26.123115244195" y1="-20.704926009277" x2="-35.72363398164" y2="-34.983167025668" style="stroke:rgb(0,0,0);stroke-width:1" />
<line x1="-30.728771719617" y1="-12.91718621507" x2="-41.057460456685" y2="-28.535678384222" style="stroke:rgb(0,0,0);stroke-width:1" />
<line x1="-33.070490043816" y1="-4.1777744521435" x2="-45.241352623301" y2="-21.288964578254" style="stroke:rgb(0,0,0);stroke-width:1" />
<line x1="-32.9757444321" y1="4.8694342854137" x2="-48.158128339883" y2="-13.445991030763" style="stroke:rgb(0,0,0);stroke-width:1" />
<line x1="-30.451515254753" y1="13.557888102527" x2="-49.726094768414" y2="-5.2264231633826" style="stroke:rgb(0,0,0);stroke-width:1" />
<line x1="-25.683774759193" y1="21.247466324956" x2="-49.901336421414" y2="3.1395259764656" style="stroke:rgb(0,0,0);stroke-width:1" />
<line x1="-19.023785589481" y1="27.371640304457" x2="-48.678945143658" y2="11.417543505533" style="stroke:rgb(0,0,0);stroke-width:1" />
<line x1="-10.962221557953" y1="31.479212341249" x2="-46.093157579425" y2="19.375779322605" style="stroke:rgb(0,0,0);stroke-width:1" />
<line x1="-2.0930173176439" y1="33.267557614276" x2="-42.216396275101" y2="26.79133974895" style="stroke:rgb(0,0,0);stroke-width:1" />
<line x1="6.9303896939252" y1="32.60492002446" x2="-37.15724127387" y2="33.456530317943" style="stroke:rgb(0,0,0);stroke-width:1" />
<line x1="15.443201170662" y1="29.540119307707" x2="-31.057389013916" y2="39.184672866292" style="stroke:rgb(0,0,0);stroke-width:1" />
<line x1="22.81823686429" y1="24.29895424738" x2="-24.087683705086" y2="43.815334002193" style="stroke:rgb(0,0,0);stroke-width:1" />
<line x1="28.51214200535" y1="17.267566979104" x2="-16.443332336929" y2="47.218818511874" style="stroke:rgb(0,0,0);stroke-width:1" />
<line x1="32.105418893255" y1="8.963994020509" x2="-8.3384373358051" y2="49.299801853525" style="stroke:rgb(0,0,0);stroke-width:1" />
<line x1="33.333333333333" y1="-3.2677880665149E-14" x2="-2.4492935982947E-14" y2="50" style="stroke:rgb(0,0,0);stroke-width:1" />
<line x1="32.105418893255" y1="-8.9639940205088" x2="8.3384373358051" y2="49.299801853525" style="stroke:rgb(0,0,0);stroke-width:1" />
<line x1="28.51214200535" y1="-17.267566979104" x2="16.443332336929" y2="47.218818511874" style="stroke:rgb(0,0,0);stroke-width:1" />
<line x1="22.81823686429" y1="-24.29895424738" x2="24.087683705086" y2="43.815334002193" style="stroke:rgb(0,0,0);stroke-width:1" />
<line x1="15.443201170662" y1="-29.540119307707" x2="31.057389013915" y2="39.184672866292" style="stroke:rgb(0,0,0);stroke-width:1" />
<line x1="6.9303896939253" y1="-32.60492002446" x2="37.15724127387" y2="33.456530317943" style="stroke:rgb(0,0,0);stroke-width:1" />
<line x1="-2.0930173176437" y1="-33.267557614276" x2="42.216396275101" y2="26.79133974895" style="stroke:rgb(0,0,0);stroke-width:1" />
<line x1="-10.962221557953" y1="-31.479212341249" x2="46.093157579425" y2="19.375779322605" style="stroke:rgb(0,0,0);stroke-width:1" />
<line x1="-19.023785589481" y1="-27.371640304457" x2="48.678945143658" y2="11.417543505533" style="stroke:rgb(0,0,0);stroke-width:1" />
<line x1="-25.683774759193" y1="-21.247466324956" x2="49.901336421414" y2="3.1395259764658" style="stroke:rgb(0,0,0);stroke-width:1" />
<line x1="-30.451515254753" y1="-13.557888102527" x2="49.726094768414" y2="-5.2264231633826" style="stroke:rgb(0,0,0);stroke-width:1" />
<line x1="-32.9757444321" y1="-4.8694342854137" x2="48.158128339883" y2="-13.445991030763" style="stroke:rgb(0,0,0);stroke-width:1" />
<line x1="-33.070490043816" y1="4.1777744521435" x2="45.241352623301" y2="-21.288964578254" style="stroke:rgb(0,0,0);stroke-width:1" />
<line x1="-30.728771719617" y1="12.91718621507" x2="41.057460456685" y2="-28.535678384222" style="stroke:rgb(0,0,0);stroke-width:1" />
<line x1="-26.123115244195" y1="20.704926009277" x2="35.72363398164" y2="-34.983167025668" style="stroke:rgb(0,0,0);stroke-width:1" />
<line x1="-19.592841743082" y1="26.967233145832" x2="29.389262614624" y2="-40.450849718747" style="stroke:rgb(0,0,0);stroke-width:1" />
<line x1="-11.619068244061" y1="31.242732983063" x2="22.231758959246" y2="-44.785588011971" style="stroke:rgb(0,0,0);stroke-width:1" />
<line x1="-2.7892614444105" y1="33.21642864165" x2="14.451589847224" y2="-47.865974876603" style="stroke:rgb(0,0,0);stroke-width:1" />
<line x1="6.2460438195242" y1="32.742908357623" x2="6.2666616782152" y2="-49.605735065724" style="stroke:rgb(0,0,0);stroke-width:1" />
<line x1="14.821172639498" y1="29.857058674647" x2="-2.09378268646" y2="-49.956141504943" style="stroke:rgb(0,0,0);stroke-width:1" />
<line x1="22.304353545295" y1="24.77149418258" x2="-10.395584540888" y2="-48.90738003669" style="stroke:rgb(0,0,0);stroke-width:1" />
<line x1="28.144264183401" y1="17.860893165967" x2="-18.406227634234" y2="-46.488824294413" style="stroke:rgb(0,0,0);stroke-width:1" />
<line x1="31.910649917736" y1="9.6343932314825" x2="-25.901350468656" y2="-42.768213008025" style="stroke:rgb(0,0,0);stroke-width:1" />
<line x1="33.326022782495" y1="0.69808066277873" x2="-32.671030199505" y2="-37.849752782588" style="stroke:rgb(0,0,0);stroke-width:1" />
<line x1="32.286105370954" y1="-8.2896629054951" x2="-38.52566213879" y2="-31.871199487434" style="stroke:rgb(0,0,0);stroke-width:1" />
<line x1="28.867513459481" y1="-16.666666666667" x2="-43.301270189222" y2="-25" style="stroke:rgb(0,0,0);stroke-width:1" />
<line x1="23.322111350446" y1="-23.81575598776" x2="-46.864099474595" y2="-17.428602366091" style="stroke:rgb(0,0,0);stroke-width:1" />
<line x1="16.058455803391" y1="-29.210222668129" x2="-49.114362536434" y2="-9.3690657292863" style="stroke:rgb(0,0,0);stroke-width:1" />
<line x1="7.6116956703553" y1="-32.452630095772" x2="-49.989034173742" y2="-1.0471209941679" style="stroke:rgb(0,0,0);stroke-width:1" />
<line x1="-1.3958551243064" y1="-33.304094336629" x2="-49.463616648149" y2="7.3041514281205" style="stroke:rgb(0,0,0);stroke-width:1" />
<line x1="-10.300566479165" y1="-31.701883876505" x2="-47.552825814758" y2="15.450849718747" style="stroke:rgb(0,0,0);stroke-width:1" />
<line x1="-18.446384974778" y1="-27.764041357003" x2="-44.310178961561" y2="23.164801755993" style="stroke:rgb(0,0,0);stroke-width:1" />
<line x1="-25.233168521725" y1="-21.78068679967" x2="-39.82649590121" y2="30.229955743119" style="stroke:rgb(0,0,0);stroke-width:1" />
<line x1="-30.160901748867" y1="-14.192643052169" x2="-34.227355296434" y2="36.448431371071" style="stroke:rgb(0,0,0);stroke-width:1" />
<line x1="-32.866534569017" y1="-5.5589582238703" x2="-27.669577462167" y2="41.646062035505" style="stroke:rgb(0,0,0);stroke-width:1" />
<line x1="-33.150729845609" y1="3.4842821089217" x2="-20.33683215379" y2="45.67727288213" style="stroke:rgb(0,0,0);stroke-width:1" />
<line x1="-30.992549529608" y1="12.270818422822" x2="-12.434494358243" y2="48.429158056432" style="stroke:rgb(0,0,0);stroke-width:1" />
<line x1="-26.550997267473" y1="20.153303828746" x2="-4.1838921666157" y2="49.824642962475" style="stroke:rgb(0,0,0);stroke-width:1" />
<line x1="-20.153303828746" y1="26.550997267473" x2="4.1838921666157" y2="49.824642962475" style="stroke:rgb(0,0,0);stroke-width:1" />
<line x1="-12.270818422823" y1="30.992549529608" x2="12.434494358243" y2="48.429158056432" style="stroke:rgb(0,0,0);stroke-width:1" />
<line x1="-3.4842821089218" y1="33.150729845609" x2="20.33683215379" y2="45.67727288213" style="stroke:rgb(0,0,0);stroke-width:1" />
<line x1="5.5589582238699" y1="32.866534569017" x2="27.669577462167" y2="41.646062035505" style="stroke:rgb(0,0,0);stroke-width:1" />
<line x1="14.192643052169" y1="30.160901748867" x2="34.227355296434" y2="36.448431371071" style="stroke:rgb(0,0,0);stroke-width:1" />
<line x1="21.78068679967" y1="25.233168521725" x2="39.82649590121" y2="30.229955743119" style="stroke:rgb(0,0,0);stroke-width:1" />
<line x1="27.764041357003" y1="18.446384974778" x2="44.310178961561" y2="23.164801755993" style="stroke:rgb(0,0,0);stroke-width:1" />
<line x1="31.701883876505" y1="10.300566479165" x2="47.552825814758" y2="15.450849718747" style="stroke:rgb(0,0,0);stroke-width:1" />
<line x1="33.304094336629" y1="1.3958551243068" x2="49.463616648149" y2="7.3041514281206" style="stroke:rgb(0,0,0);stroke-width:1" />
<line x1="32.452630095772" y1="-7.6116956703552" x2="49.989034173742" y2="-1.0471209941678" style="stroke:rgb(0,0,0);stroke-width:1" />
<line x1="29.210222668129" y1="-16.05845580339" x2="49.114362536434" y2="-9.3690657292861" style="stroke:rgb(0,0,0);stroke-width:1" />
<line x1="23.81575598776" y1="-23.322111350445" x2="46.864099474595" y2="-17.428602366091" style="stroke:rgb(0,0,0);stroke-width:1" />
<line x1="16.666666666667" y1="-28.867513459481" x2="43.301270189222" y2="-25" style="stroke:rgb(0,0,0);stroke-width:1" />
<line x1="8.2896629054953" y1="-32.286105370954" x2="38.52566213879" y2="-31.871199487434" style="stroke:rgb(0,0,0);stroke-width:1" />
<line x1="-0.6980806627786" y1="-33.326022782495" x2="32.671030199505" y2="-37.849752782588" style="stroke:rgb(0,0,0);stroke-width:1" />
<line x1="-9.6343932314823" y1="-31.910649917736" x2="25.901350468657" y2="-42.768213008025" style="stroke:rgb(0,0,0);stroke-width:1" />
<line x1="-17.860893165966" y1="-28.144264183401" x2="18.406227634234" y2="-46.488824294413" style="stroke:rgb(0,0,0);stroke-width:1" />
<line x1="-24.77149418258" y1="-22.304353545295" x2="10.395584540888" y2="-48.90738003669" style="stroke:rgb(0,0,0);stroke-width:1" />
<line x1="-29.857058674647" y1="-14.821172639498" x2="2.0937826864601" y2="-49.956141504943" style="stroke:rgb(0,0,0);stroke-width:1" />
<line x1="-32.742908357623" y1="-6.2460438195243" x2="-6.2666616782151" y2="-49.605735065724" style="stroke:rgb(0,0,0);stroke-width:1" />
<line x1="-33.21642864165" y1="2.7892614444102" x2="-14.451589847224" y2="-47.865974876603" style="stroke:rgb(0,0,0);stroke-width:1" />
<line x1="-31.242732983063" y1="11.61906824406" x2="-22.231758959246" y2="-44.785588011971" style="stroke:rgb(0,0,0);stroke-width:1" />
<line x1="-26.967233145832" y1="19.592841743082" x2="-29.389262614624" y2="-40.450849718747" style="stroke:rgb(0,0,0);stroke-width:1" />
<line x1="-20.704926009277" y1="26.123115244195" x2="-35.72363398164" y2="-34.983167025668" style="stroke:rgb(0,0,0);stroke-width:1" />
<line x1="-12.91718621507" y1="30.728771719617" x2="-41.057460456685" y2="-28.535678384222" style="stroke:rgb(0,0,0);stroke-width:1" />
<line x1="-4.1777744521437" y1="33.070490043816" x2="-45.241352623301" y2="-21.288964578254" style="stroke:rgb(0,0,0);stroke-width:1" />
<line x1="4.8694342854136" y1="32.9757444321" x2="-48.158128339883" y2="-13.445991030763" style="stroke:rgb(0,0,0);stroke-width:1" />
<line x1="13.557888102526" y1="30.451515254753" x2="-49.726094768414" y2="-5.2264231633827" style="stroke:rgb(0,0,0);stroke-width:1" />
<line x1="21.247466324956" y1="25.683774759193" x2="-49.901336421414" y2="3.1395259764655" style="stroke:rgb(0,0,0);stroke-width:1" />
<line x1="27.371640304457" y1="19.023785589481" x2="-48.678945143658" y2="11.417543505533" style="stroke:rgb(0,0,0);stroke-width:1" />
<line x1="31.479212341249" y1="10.962221557953" x2="-46.093157579425" y2="19.375779322605" style="stroke:rgb(0,0,0);stroke-width:1" />
<line x1="33.267557614276" y1="2.0930173176439" x2="-42.216396275101" y2="26.79133974895" style="stroke:rgb(0,0,0);stroke-width:1" />
<line x1="32.60492002446" y1="-6.9303896939251" x2="-37.15724127387" y2="33.456530317943" style="stroke:rgb(0,0,0);stroke-width:1" />
<line x1="29.540119307707" y1="-15.443201170662" x2="-31.057389013916" y2="39.184672866292" style="stroke:rgb(0,0,0);stroke-width:1" />
<line x1="24.29895424738" y1="-22.81823686429" x2="-24.087683705086" y2="43.815334002193" style="stroke:rgb(0,0,0);stroke-width:1" />
<line x1="17.267566979105" y1="-28.51214200535" x2="-16.443332336929" y2="47.218818511874" style="stroke:rgb(0,0,0);stroke-width:1" />
<line x1="8.9639940205089" y1="-32.105418893255" x2="-8.3384373358052" y2="49.299801853525" style="stroke:rgb(0,0,0);stroke-width:1" />
<line x1="-6.5355761330298E-14" y1="-33.333333333333" x2="-4.8985871965894E-14" y2="50" style="stroke:rgb(0,0,0);stroke-width:1" />
<line x1="-8.9639940205088" y1="-32.105418893255" x2="8.3384373358049" y2="49.299801853525" style="stroke:rgb(0,0,0);stroke-width:1" />
<line x1="-17.267566979104" y1="-28.51214200535" x2="16.443332336929" y2="47.218818511874" style="stroke:rgb(0,0,0);stroke-width:1" />
<line x1="-24.29895424738" y1="-22.81823686429" x2="24.087683705086" y2="43.815334002193" style="stroke:rgb(0,0,0);stroke-width:1" />
<line x1="-29.540119307707" y1="-15.443201170662" x2="31.057389013915" y2="39.184672866292" style="stroke:rgb(0,0,0);stroke-width:1" />
<line x1="-32.60492002446" y1="-6.9303896939252" x2="37.15724127387" y2="33.456530317943" style="stroke:rgb(0,0,0);stroke-width:1" />
<line x1="-33.267557614276" y1="2.0930173176438" x2="42.216396275101" y2="26.79133974895" style="stroke:rgb(0,0,0);stroke-width:1" />
<line x1="-31.479212341249" y1="10.962221557953" x2="46.093157579425" y2="19.375779322605" style="stroke:rgb(0,0,0);stroke-width:1" />
<line x1="-27.371640304457" y1="19.023785589481" x2="48.678945143658" y2="11.417543505533" style="stroke:rgb(0,0,0);stroke-width:1" />
<line x1="-21.247466324956" y1="25.683774759193" x2="49.901336421414" y2="3.139525976466" style="stroke:rgb(0,0,0);stroke-width:1" />
<line x1="-13.557888102527" y1="30.451515254753" x2="49.726094768414" y2="-5.2264231633826" style="stroke:rgb(0,0,0);stroke-width:1" />
<line x1="-4.8694342854137" y1="32.9757444321" x2="48.158128339883" y2="-13.445991030763" style="stroke:rgb(0,0,0);stroke-width:1" />
<line x1="4.1777744521434" y1="33.070490043816" x2="45.241352623301" y2="-21.288964578254" style="stroke:rgb(0,0,0);stroke-width:1" />
<line x1="12.91718621507" y1="30.728771719617" x2="41.057460456685" y2="-28.535678384222" style="stroke:rgb(0,0,0);stroke-width:1" />
<line x1="20.704926009277" y1="26.123115244195" x2="35.72363398164" y2="-34.983167025668" style="stroke:rgb(0,0,0);stroke-width:1" />
<line x1="26.967233145832" y1="19.592841743082" x2="29.389262614624" y2="-40.450849718747" style="stroke:rgb(0,0,0);stroke-width:1" />
<line x1="31.242732983063" y1="11.61906824406" x2="22.231758959246" y2="-44.785588011971" style="stroke:rgb(0,0,0);stroke-width:1" />
<line x1="33.21642864165" y1="2.7892614444106" x2="14.451589847224" y2="-47.865974876603" style="stroke:rgb(0,0,0);stroke-width:1" />
<line x1="32.742908357623" y1="-6.246043819524" x2="6.2666616782154" y2="-49.605735065724" style="stroke:rgb(0,0,0);stroke-width:1" />
<line x1="29.857058674647" y1="-14.821172639498" x2="-2.0937826864596" y2="-49.956141504943" style="stroke:rgb(0,0,0);stroke-width:1" />
<line x1="24.77149418258" y1="-22.304353545295" x2="-10.395584540888" y2="-48.90738003669" style="stroke:rgb(0,0,0);stroke-width:1" />
<line x1="17.860893165967" y1="-28.144264183401" x2="-18.406227634234" y2="-46.488824294413" style="stroke:rgb(0,0,0);stroke-width:1" />
<line x1="9.6343932314824" y1="-31.910649917736" x2="-25.901350468657" y2="-42.768213008025" style="stroke:rgb(0,0,0);stroke-width:1" />
<line x1="0.6980806627787" y1="-33.326022782495" x2="-32.671030199505" y2="-37.849752782588" style="stroke:rgb(0,0,0);stroke-width:1" />
<line x1="-8.2896629054952" y1="-32.286105370954" x2="-38.525662138789" y2="-31.871199487435" style="stroke:rgb(0,0,0);stroke-width:1" />
<line x1="-16.666666666667" y1="-28.867513459481" x2="-43.301270189222" y2="-25" style="stroke:rgb(0,0,0);stroke-width:1" />
<line x1="-23.81575598776" y1="-23.322111350446" x2="-46.864099474595" y2="-17.428602366091" style="stroke:rgb(0,0,0);stroke-width:1" />
<line x1="-29.210222668129" y1="-16.058455803391" x2="-49.114362536434" y2="-9.3690657292863" style="stroke:rgb(0,0,0);stroke-width:1" />
<line x1="-32.452630095772" y1="-7.6116956703553" x2="-49.989034173742" y2="-1.0471209941681" style="stroke:rgb(0,0,0);stroke-width:1" />
<line x1="-33.304094336629" y1="1.3958551243067" x2="-49.463616648149" y2="7.3041514281203" style="stroke:rgb(0,0,0);stroke-width:1" />
<line x1="-31.701883876505" y1="10.300566479165" x2="-47.552825814758" y2="15.450849718747" style="stroke:rgb(0,0,0);stroke-width:1" />
<line x1="-27.764041357003" y1="18.446384974778" x2="-44.310178961561" y2="23.164801755993" style="stroke:rgb(0,0,0);stroke-width:1" />
<line x1="-21.78068679967" y1="25.233168521725" x2="-39.82649590121" y2="30.229955743119" style="stroke:rgb(0,0,0);stroke-width:1" />
<line x1="-14.192643052169" y1="30.160901748867" x2="-34.227355296434" y2="36.448431371071" style="stroke:rgb(0,0,0);stroke-width:1" />
<line x1="-5.55895822387" y1="32.866534569017" x2="-27.669577462167" y2="41.646062035505" style="stroke:rgb(0,0,0);stroke-width:1" />
<line x1="3.484282108922" y1="33.150729845609" x2="-20.33683215379" y2="45.67727288213" style="stroke:rgb(0,0,0);stroke-width:1" />
<line x1="12.270818422823" y1="30.992549529608" x2="-12.434494358243" y2="48.429158056432" style="stroke:rgb(0,0,0);stroke-width:1" />
<line x1="20.153303828746" y1="26.550997267473" x2="-4.1838921666159" y2="49.824642962475" style="stroke:rgb(0,0,0);stroke-width:1" />
<line x1="26.550997267473" y1="20.153303828746" x2="4.1838921666158" y2="49.824642962475" style="stroke:rgb(0,0,0);stroke-width:1" />
<line x1="30.992549529608" y1="12.270818422823" x2="12.434494358243" y2="48.429158056432" style="stroke:rgb(0,0,0);stroke-width:1" />
<line x1="33.150729845609" y1="3.484282108922" x2="20.33683215379" y2="45.67727288213" style="stroke:rgb(0,0,0);stroke-width:1" />
<line x1="32.866534569017" y1="-5.5589582238702" x2="27.669577462167" y2="41.646062035505" style="stroke:rgb(0,0,0);stroke-width:1" />
<line x1="30.160901748867" y1="-14.192643052169" x2="34.227355296434" y2="36.448431371071" style="stroke:rgb(0,0,0);stroke-width:1" />
<line x1="25.233168521725" y1="-21.78068679967" x2="39.82649590121" y2="30.229955743119" style="stroke:rgb(0,0,0);stroke-width:1" />
<line x1="18.446384974778" y1="-27.764041357003" x2="44.310178961561" y2="23.164801755993" style="stroke:rgb(0,0,0);stroke-width:1" />
<line x1="10.300566479165" y1="-31.701883876505" x2="47.552825814758" y2="15.450849718747" style="stroke:rgb(0,0,0);stroke-width:1" />
<line x1="1.395855124307" y1="-33.304094336629" x2="49.463616648149" y2="7.3041514281208" style="stroke:rgb(0,0,0);stroke-width:1" />
<line x1="-7.6116956703548" y1="-32.452630095772" x2="49.989034173742" y2="-1.0471209941678" style="stroke:rgb(0,0,0);stroke-width:1" />
<line x1="-16.05845580339" y1="-29.210222668129" x2="49.114362536434" y2="-9.3690657292864" style="stroke:rgb(0,0,0);stroke-width:1" />
<line x1="-23.322111350445" y1="-23.81575598776" x2="46.864099474595" y2="-17.428602366091" style="stroke:rgb(0,0,0);stroke-width:1" />
<line x1="-28.867513459481" y1="-16.666666666667" x2="43.301270189222" y2="-25" style="stroke:rgb(0,0,0);stroke-width:1" />
<line x1="-32.286105370954" y1="-8.2896629054955" x2="38.52566213879" y2="-31.871199487434" style="stroke:rgb(0,0,0);stroke-width:1" />
<line x1="-33.326022782495" y1="0.69808066277815" x2="32.671030199505" y2="-37.849752782588" style="stroke:rgb(0,0,0);stroke-width:1" />
<line x1="-31.910649917736" y1="9.6343932314819" x2="25.901350468656" y2="-42.768213008025" style="stroke:rgb(0,0,0);stroke-width:1" />
<line x1="-28.144264183401" y1="17.860893165966" x2="18.406227634234" y2="-46.488824294413" style="stroke:rgb(0,0,0);stroke-width:1" />
<line x1="-22.304353545295" y1="24.77149418258" x2="10.395584540888" y2="-48.90738003669" style="stroke:rgb(0,0,0);stroke-width:1" />
<line x1="-14.821172639498" y1="29.857058674647" x2="2.0937826864601" y2="-49.956141504943" style="stroke:rgb(0,0,0);stroke-width:1" />
<line x1="-6.2460438195245" y1="32.742908357623" x2="-6.2666616782149" y2="-49.605735065724" style="stroke:rgb(0,0,0);stroke-width:1" />
<line x1="2.78926144441" y1="33.21642864165" x2="-14.451589847223" y2="-47.865974876603" style="stroke:rgb(0,0,0);stroke-width:1" />
<line x1="11.61906824406" y1="31.242732983063" x2="-22.231758959246" y2="-44.785588011971" style="stroke:rgb(0,0,0);stroke-width:1" />
<line x1="19.592841743082" y1="26.967233145832" x2="-29.389262614624" y2="-40.450849718747" style="stroke:rgb(0,0,0);stroke-width:1" />
<line x1="26.123115244194" y1="20.704926009277" x2="-35.72363398164" y2="-34.983167025668" style="stroke:rgb(0,0,0);stroke-width:1" />
<line x1="30.728771719617" y1="12.91718621507" x2="-41.057460456685" y2="-28.535678384222" style="stroke:rgb(0,0,0);stroke-width:1" />
<line x1="33.070490043816" y1="4.1777744521439" x2="-45.241352623301" y2="-21.288964578254" style="stroke:rgb(0,0,0);stroke-width:1" />
<line x1="32.9757444321" y1="-4.8694342854136" x2="-48.158128339883" y2="-13.445991030763" style="stroke:rgb(0,0,0);stroke-width:1" />
<line x1="30.451515254753" y1="-13.557888102527" x2="-49.726094768414" y2="-5.2264231633829" style="stroke:rgb(0,0,0);stroke-width:1" />
<line x1="25.683774759193" y1="-21.247466324956" x2="-49.901336421414" y2="3.1395259764657" style="stroke:rgb(0,0,0);stroke-width:1" />
<line x1="19.023785589481" y1="-27.371640304457" x2="-48.678945143658" y2="11.417543505533" style="stroke:rgb(0,0,0);stroke-width:1" />
<line x1="10.962221557953" y1="-31.479212341249" x2="-46.093157579425" y2="19.375779322605" style="stroke:rgb(0,0,0);stroke-width:1" />
<line x1="2.0930173176438" y1="-33.267557614276" x2="-42.216396275101" y2="26.79133974895" style="stroke:rgb(0,0,0);stroke-width:1" />
<line x1="-6.9303896939252" y1="-32.60492002446" x2="-37.15724127387" y2="33.456530317943" style="stroke:rgb(0,0,0);stroke-width:1" />
<line x1="-15.443201170662" y1="-29.540119307707" x2="-31.057389013916" y2="39.184672866292" style="stroke:rgb(0,0,0);stroke-width:1" />
<line x1="-22.818236864289" y1="-24.298954247381" x2="-24.087683705086" y2="43.815334002193" style="stroke:rgb(0,0,0);stroke-width:1" />
<line x1="-28.51214200535" y1="-17.267566979105" x2="-16.443332336929" y2="47.218818511874" style="stroke:rgb(0,0,0);stroke-width:1" />
<line x1="-32.105418893255" y1="-8.9639940205089" x2="-8.338437335805" y2="49.299801853525" style="stroke:rgb(0,0,0);stroke-width:1" />
<line x1="-33.333333333333" y1="-1.3881393659125E-13" x2="-7.3478807948841E-14" y2="50" style="stroke:rgb(0,0,0);stroke-width:1" />
<line x1="-32.105418893255" y1="8.9639940205086" x2="8.3384373358049" y2="49.299801853525" style="stroke:rgb(0,0,0);stroke-width:1" />
<line x1="-28.51214200535" y1="17.267566979104" x2="16.443332336929" y2="47.218818511874" style="stroke:rgb(0,0,0);stroke-width:1" />
<line x1="-22.81823686429" y1="24.29895424738" x2="24.087683705086" y2="43.815334002193" style="stroke:rgb(0,0,0);stroke-width:1" />
<line x1="-15.443201170662" y1="29.540119307707" x2="31.057389013915" y2="39.184672866292" style="stroke:rgb(0,0,0);stroke-width:1" />
<line x1="-6.9303896939254" y1="32.60492002446" x2="37.15724127387" y2="33.456530317943" style="stroke:rgb(0,0,0);stroke-width:1" />
<line x1="2.0930173176436" y1="33.267557614276" x2="42.216396275101" y2="26.79133974895" style="stroke:rgb(0,0,0);stroke-width:1" />
<line x1="10.962221557952" y1="31.479212341249" x2="46.093157579425" y2="19.375779322605" style="stroke:rgb(0,0,0);stroke-width:1" />
<line x1="19.023785589481" y1="27.371640304457" x2="48.678945143658" y2="11.417543505533" style="stroke:rgb(0,0,0);stroke-width:1" />
<line x1="25.683774759193" y1="21.247466324956" x2="49.901336421414" y2="3.1395259764658" style="stroke:rgb(0,0,0);stroke-width:1" />
<line x1="30.451515254753" y1="13.557888102527" x2="49.726094768414" y2="-5.2264231633827" style="stroke:rgb(0,0,0);stroke-width:1" />
<line x1="32.9757444321" y1="4.8694342854139" x2="48.158128339883" y2="-13.445991030763" style="stroke:rgb(0,0,0);stroke-width:1" />
<line x1="33.070490043816" y1="-4.1777744521434" x2="45.241352623301" y2="-21.288964578253" style="stroke:rgb(0,0,0);stroke-width:1" />
<line x1="30.728771719617" y1="-12.91718621507" x2="41.057460456685" y2="-28.535678384221" style="stroke:rgb(0,0,0);stroke-width:1" />
<line x1="26.123115244195" y1="-20.704926009277" x2="35.72363398164" y2="-34.983167025668" style="stroke:rgb(0,0,0);stroke-width:1" />
<line x1="19.592841743083" y1="-26.967233145832" x2="29.389262614624" y2="-40.450849718747" style="stroke:rgb(0,0,0);stroke-width:1" />
<line x1="11.61906824406" y1="-31.242732983063" x2="22.231758959246" y2="-44.785588011971" style="stroke:rgb(0,0,0);stroke-width:1" />
<line x1="2.7892614444108" y1="-33.21642864165" x2="14.451589847224" y2="-47.865974876603" style="stroke:rgb(0,0,0);stroke-width:1" />
<line x1="-6.246043819524" y1="-32.742908357623" x2="6.2666616782154" y2="-49.605735065724" style="stroke:rgb(0,0,0);stroke-width:1" />
<line x1="-14.821172639498" y1="-29.857058674647" x2="-2.0937826864599" y2="-49.956141504943" style="stroke:rgb(0,0,0);stroke-width:1" />
<line x1="-22.304353545295" y1="-24.77149418258" x2="-10.395584540888" y2="-48.90738003669" style="stroke:rgb(0,0,0);stroke-width:1" />
<line x1="-28.1442641834" y1="-17.860893165967" x2="-18.406227634234" y2="-46.488824294413" style="stroke:rgb(0,0,0);stroke-width:1" />
<line x1="-31.910649917736" y1="-9.6343932314824" x2="-25.901350468656" y2="-42.768213008025" style="stroke:rgb(0,0,0);stroke-width:1" />
<line x1="-33.326022782495" y1="-0.69808066277891" x2="-32.671030199505" y2="-37.849752782588" style="stroke:rgb(0,0,0);stroke-width:1" />
<line x1="-32.286105370954" y1="8.2896629054954" x2="-38.52566213879" y2="-31.871199487434" style="stroke:rgb(0,0,0);stroke-width:1" />
<line x1="-28.867513459481" y1="16.666666666667" x2="-43.301270189222" y2="-25" style="stroke:rgb(0,0,0);stroke-width:1" />
<line x1="-23.322111350445" y1="23.81575598776" x2="-46.864099474595" y2="-17.428602366091" style="stroke:rgb(0,0,0);stroke-width:1" />
<line x1="-16.058455803391" y1="29.210222668129" x2="-49.114362536434" y2="-9.3690657292865" style="stroke:rgb(0,0,0);stroke-width:1" />
<line x1="-7.6116956703553" y1="32.452630095772" x2="-49.989034173742" y2="-1.047120994168" style="stroke:rgb(0,0,0);stroke-width:1" />
<line x1="1.3958551243067" y1="33.304094336629" x2="-49.463616648149" y2="7.3041514281207" style="stroke:rgb(0,0,0);stroke-width:1" />
<line x1="10.300566479165" y1="31.701883876505" x2="-47.552825814758" y2="15.450849718747" style="stroke:rgb(0,0,0);stroke-width:1" />
<line x1="18.446384974778" y1="27.764041357003" x2="-44.310178961561" y2="23.164801755993" style="stroke:rgb(0,0,0);stroke-width:1" />
<line x1="25.233168521725" y1="21.78068679967" x2="-39.82649590121" y2="30.229955743118" style="stroke:rgb(0,0,0);stroke-width:1" />
<line x1="30.160901748867" y1="14.192643052169" x2="-34.227355296435" y2="36.44843137107" style="stroke:rgb(0,0,0);stroke-width:1" />
<line x1="32.866534569017" y1="5.5589582238702" x2="-27.669577462167" y2="41.646062035505" style="stroke:rgb(0,0,0);stroke-width:1" />
<line x1="33.150729845609" y1="-3.4842821089218" x2="-20.33683215379" y2="45.67727288213" style="stroke:rgb(0,0,0);stroke-width:1" />
<line x1="30.992549529608" y1="-12.270818422823" x2="-12.434494358243" y2="48.429158056432" style="stroke:rgb(0,0,0);stroke-width:1" />
<line x1="26.550997267473" y1="-20.153303828746" x2="-4.183892166616" y2="49.824642962475" style="stroke:rgb(0,0,0);stroke-width:1" />
<line x1="20.153303828746" y1="-26.550997267473" x2="4.1838921666154" y2="49.824642962475" style="stroke:rgb(0,0,0);stroke-width:1" />
<line x1="12.270818422823" y1="-30.992549529608" x2="12.434494358243" y2="48.429158056432" style="stroke:rgb(0,0,0);stroke-width:1" />
<line x1="3.484282108922" y1="-33.150729845609" x2="20.33683215379" y2="45.67727288213" style="stroke:rgb(0,0,0);stroke-width:1" />
<line x1="-5.5589582238695" y1="-32.866534569017" x2="27.669577462167" y2="41.646062035505" style="stroke:rgb(0,0,0);stroke-width:1" />
<line x1="-14.192643052169" y1="-30.160901748867" x2="34.227355296434" y2="36.448431371071" style="stroke:rgb(0,0,0);stroke-width:1" />
<line x1="-21.78068679967" y1="-25.233168521725" x2="39.82649590121" y2="30.229955743119" style="stroke:rgb(0,0,0);stroke-width:1" />
<line x1="-27.764041357003" y1="-18.446384974778" x2="44.310178961561" y2="23.164801755993" style="stroke:rgb(0,0,0);stroke-width:1" />
<line x1="-31.701883876505" y1="-10.300566479165" x2="47.552825814758" y2="15.450849718747" style="stroke:rgb(0,0,0);stroke-width:1" />
<line x1="-33.304094336629" y1="-1.395855124307" x2="49.463616648149" y2="7.3041514281208" style="stroke:rgb(0,0,0);stroke-width:1" />
<line x1="-32.452630095772" y1="7.611695670355" x2="49.989034173742" y2="-1.0471209941678" style="stroke:rgb(0,0,0);stroke-width:1" />
<line x1="-29.210222668129" y1="16.05845580339" x2="49.114362536434" y2="-9.369065729286" style="stroke:rgb(0,0,0);stroke-width:1" />
<line x1="-23.81575598776" y1="23.322111350445" x2="46.864099474595" y2="-17.428602366091" style="stroke:rgb(0,0,0);stroke-width:1" />
<line x1="-16.666666666667" y1="28.867513459481" x2="43.301270189222" y2="-25" style="stroke:rgb(0,0,0);stroke-width:1" />
<line x1="-8.2896629054957" y1="32.286105370954" x2="38.52566213879" y2="-31.871199487434" style="stroke:rgb(0,0,0);stroke-width:1" />
<line x1="0.69808066277819" y1="33.326022782495" x2="32.671030199505" y2="-37.849752782588" style="stroke:rgb(0,0,0);stroke-width:1" />
<line x1="9.6343932314822" y1="31.910649917736" x2="25.901350468657" y2="-42.768213008025" style="stroke:rgb(0,0,0);stroke-width:1" />
<line x1="17.860893165966" y1="28.144264183401" x2="18.406227634234" y2="-46.488824294413" style="stroke:rgb(0,0,0);stroke-width:1" />
<line x1="24.77149418258" y1="22.304353545296" x2="10.395584540888" y2="-48.90738003669" style="stroke:rgb(0,0,0);stroke-width:1" />
<line x1="29.857058674647" y1="14.821172639498" x2="2.0937826864601" y2="-49.956141504943" style="stroke:rgb(0,0,0);stroke-width:1" />
<line x1="32.742908357623" y1="6.2460438195243" x2="-6.2666616782149" y2="-49.605735065724" style="stroke:rgb(0,0,0);stroke-width:1" />
<line x1="33.21642864165" y1="-2.7892614444105" x2="-14.451589847223" y2="-47.865974876604" style="stroke:rgb(0,0,0);stroke-width:1" />
<line x1="31.242732983063" y1="-11.61906824406" x2="-22.231758959246" y2="-44.785588011971" style="stroke:rgb(0,0,0);stroke-width:1" />
<line x1="26.967233145832" y1="-19.592841743082" x2="-29.389262614624" y2="-40.450849718747" style="stroke:rgb(0,0,0);stroke-width:1" />
<line x1="20.704926009277" y1="-26.123115244195" x2="-35.72363398164" y2="-34.983167025668" style="stroke:rgb(0,0,0);stroke-width:1" />
<line x1="12.91718621507" y1="-30.728771719617" x2="-41.057460456685" y2="-28.535678384222" style="stroke:rgb(0,0,0);stroke-width:1" />
<line x1="4.1777744521437" y1="-33.070490043816" x2="-45.241352623301" y2="-21.288964578254" style="stroke:rgb(0,0,0);stroke-width:1" />
<line x1="-4.8694342854132" y1="-32.9757444321" x2="-48.158128339883" y2="-13.445991030763" style="stroke:rgb(0,0,0);stroke-width:1" />
<line x1="-13.557888102526" y1="-30.451515254754" x2="-49.726094768414" y2="-5.2264231633829" style="stroke:rgb(0,0,0);stroke-width:1" />
<line x1="-21.247466324956" y1="-25.683774759193" x2="-49.901336421414" y2="3.1395259764656" style="stroke:rgb(0,0,0);stroke-width:1" />
<line x1="-27.371640304457" y1="-19.023785589481" x2="-48.678945143658" y2="11.417543505533" style="stroke:rgb(0,0,0);stroke-width:1" />
<line x1="-31.479212341249" y1="-10.962221557953" x2="-46.093157579425" y2="19.375779322605" style="stroke:rgb(0,0,0);stroke-width:1" />
<line x1="-33.267557614276" y1="-2.093017317644" x2="-42.216396275101" y2="26.79133974895" style="stroke:rgb(0,0,0);stroke-width:1" />
<line x1="-32.60492002446" y1="6.9303896939252" x2="-37.15724127387" y2="33.456530317943" style="stroke:rgb(0,0,0);stroke-width:1" />
<line x1="-29.540119307707" y1="15.443201170662" x2="-31.057389013916" y2="39.184672866292" style="stroke:rgb(0,0,0);stroke-width:1" />
<line x1="-24.298954247381" y1="22.818236864289" x2="-24.087683705086" y2="43.815334002193" style="stroke:rgb(0,0,0);stroke-width:1" />
<line x1="-17.267566979104" y1="28.51214200535" x2="-16.443332336929" y2="47.218818511874" style="stroke:rgb(0,0,0);stroke-width:1" />
<line x1="-8.9639940205093" y1="32.105418893255" x2="-8.338437335805" y2="49.299801853525" style="stroke:rgb(0,0,0);stroke-width:1" />
<line x1="1.307115226606E-13" y1="33.333333333333" x2="-9.7971743931788E-14" y2="50" style="stroke:rgb(0,0,0);stroke-width:1" />
</svg>