<!DOCTYPE svg PUBLIC "-//W3C//DTD SVG 1.1//EN" 
"http://www.w3.org/Graphics/SVG/1.1/DTD/svg11.dtd"> 
<svg xmlns="http://www.w3.org/2000/svg" version="1.1"><line x1="0" y1="25" x2="0" y2="50" style="stroke:rgb(0,0,0);stroke-width:1" />
<line x1="9.9286972658695" y1="22.9438656421" x2="8.3384373358051" y2="49.299801853525" style="stroke:rgb(0,0,0);stroke-width:1" />
<line x1="18.224215685535" y1="17.113677648217" x2="16.443332336929" y2="47.218818511874" style="stroke:rgb(0,0,0);stroke-width:1" />
<line x1="23.522019223856" y1="8.4684480061323" x2="24.087683705086" y2="43.815334002193" style="stroke:rgb(0,0,0);stroke-width:1" />
<line x1="24.950668210707" y1="-1.5697629882328" x2="31.057389013916" y2="39.184672866292" style="stroke:rgb(0,0,0);stroke-width:1" />
<line x1="22.275163104709" y1="-11.349762493489" x2="37.15724127387" y2="33.456530317943" style="stroke:rgb(0,0,0);stroke-width:1" />
<line x1="15.935599743717" y1="-19.262831069395" x2="42.216396275101" y2="26.79133974895" style="stroke:rgb(0,0,0);stroke-width:1" />
<line x1="6.9747776509807" y1="-24.007342141924" x2="46.093157579425" y2="19.375779322605" style="stroke:rgb(0,0,0);stroke-width:1" />
<line x1="-3.1333308391076" y1="-24.802867532862" x2="48.678945143658" y2="11.417543505533" style="stroke:rgb(0,0,0);stroke-width:1" />
<line x1="-12.726035393759" y1="-21.518550675099" x2="49.901336421414" y2="3.1395259764657" style="stroke:rgb(0,0,0);stroke-width:1" />
<line x1="-20.225424859374" y1="-14.694631307312" x2="49.726094768414" y2="-5.2264231633827" style="stroke:rgb(0,0,0);stroke-width:1" />
<line x1="-24.397919048469" y1="-5.4535810349136" x2="48.158128339883" y2="-13.445991030763" style="stroke:rgb(0,0,0);stroke-width:1" />
<line x1="-24.557181268217" y1="4.6845328646431" x2="45.241352623301" y2="-21.288964578254" style="stroke:rgb(0,0,0);stroke-width:1" />
<line x1="-20.677014356864" y1="14.052084446303" x2="41.057460456685" y2="-28.535678384222" style="stroke:rgb(0,0,0);stroke-width:1" />
<line x1="-13.395669874475" y1="21.10819813755" x2="35.72363398164" y2="-34.983167025668" style="stroke:rgb(0,0,0);stroke-width:1" />
<line x1="-3.9108616260058" y1="24.692208514878" x2="29.389262614624" y2="-40.450849718747" style="stroke:rgb(0,0,0);stroke-width:1" />
<line x1="6.2172471791214" y1="24.214579028216" x2="22.231758959246" y2="-44.785588011971" style="stroke:rgb(0,0,0);stroke-width:1" />
<line x1="15.322676341324" y1="19.753875309392" x2="14.451589847224" y2="-47.865974876603" style="stroke:rgb(0,0,0);stroke-width:1" />
<line x1="21.907667001097" y1="12.043841852543" x2="6.2666616782152" y2="-49.605735065724" style="stroke:rgb(0,0,0);stroke-width:1" />
<line x1="24.889049115077" y1="2.3527078329629" x2="-2.09378268646" y2="-49.956141504943" style="stroke:rgb(0,0,0);stroke-width:1" />
<line x1="23.776412907379" y1="-7.7254248593737" x2="-10.395584540888" y2="-48.90738003669" style="stroke:rgb(0,0,0);stroke-width:1" />
<line x1="18.752776740762" y1="-16.532796633091" x2="-18.406227634234" y2="-46.488824294413" style="stroke:rgb(0,0,0);stroke-width:1" />
<line x1="10.644482289127" y1="-22.62067631165" x2="-25.901350468656" y2="-42.768213008025" style="stroke:rgb(0,0,0);stroke-width:1" />
<line x1="0.78526897695326" y1="-24.987664009143" x2="-32.671030199505" y2="-37.849752782588" style="stroke:rgb(0,0,0);stroke-width:1" />
<line x1="-9.2031138171169" y1="-23.244412147206" x2="-38.525662138789" y2="-31.871199487435" style="stroke:rgb(0,0,0);stroke-width:1" />
<line x1="-17.677669529664" y1="-17.677669529664" x2="-43.301270189222" y2="-25" style="stroke:rgb(0,0,0);stroke-width:1" />
<line x1="-23.244412147206" y1="-9.203113817117" x2="-46.864099474595" y2="-17.428602366091" style="stroke:rgb(0,0,0);stroke-width:1" />
<line x1="-24.987664009143" y1="0.78526897695319" x2="-49.114362536434" y2="-9.3690657292862" style="stroke:rgb(0,0,0);stroke-width:1" />
<line x1="-22.62067631165" y1="10.644482289127" x2="-49.989034173742" y2="-1.0471209941678" style="stroke:rgb(0,0,0);stroke-width:1" />
<line x1="-16.532796633091" y1="18.752776740761" x2="-49.463616648149" y2="7.3041514281206" style="stroke:rgb(0,0,0);stroke-width:1" />
<line x1="-7.7254248593737" y1="23.776412907379" x2="-47.552825814758" y2="15.450849718747" style="stroke:rgb(0,0,0);stroke-width:1" />
<line x1="2.3527078329629" y1="24.889049115077" x2="-44.310178961561" y2="23.164801755993" style="stroke:rgb(0,0,0);stroke-width:1" />
<line x1="12.043841852543" y1="21.907667001097" x2="-39.82649590121" y2="30.229955743119" style="stroke:rgb(0,0,0);stroke-width:1" />
<line x1="19.753875309392" y1="15.322676341324" x2="-34.227355296434" y2="36.448431371071" style="stroke:rgb(0,0,0);stroke-width:1" />
<line x1="24.214579028216" y1="6.2172471791214" x2="-27.669577462167" y2="41.646062035505" style="stroke:rgb(0,0,0);stroke-width:1" />
<line x1="24.692208514878" y1="-3.9108616260057" x2="-20.33683215379" y2="45.67727288213" style="stroke:rgb(0,0,0);stroke-width:1" />
<line x1="21.10819813755" y1="-13.395669874475" x2="-12.434494358243" y2="48.429158056432" style="stroke:rgb(0,0,0);stroke-width:1" />
<line x1="14.052084446303" y1="-20.677014356864" x2="-4.1838921666158" y2="49.824642962475" style="stroke:rgb(0,0,0);stroke-width:1" />
<line x1="4.6845328646431" y1="-24.557181268217" x2="4.1838921666158" y2="49.824642962475" style="stroke:rgb(0,0,0);stroke-width:1" />
<line x1="-5.4535810349135" y1="-24.397919048469" x2="12.434494358243" y2="48.429158056432" style="stroke:rgb(0,0,0);stroke-width:1" />
<line x1="-14.694631307312" y1="-20.225424859374" x2="20.33683215379" y2="45.67727288213" style="stroke:rgb(0,0,0);stroke-width:1" />
<line x1="-21.518550675099" y1="-12.726035393759" x2="27.669577462167" y2="41.646062035505" style="stroke:rgb(0,0,0);stroke-width:1" />
<line x1="-24.802867532862" y1="-3.1333308391076" x2="34.227355296434" y2="36.448431371071" style="stroke:rgb(0,0,0);stroke-width:1" />
<line x1="-24.007342141924" y1="6.9747776509807" x2="39.82649590121" y2="30.229955743119" style="stroke:rgb(0,0,0);stroke-width:1" />
<line x1="-19.262831069395" y1="15.935599743717" x2="44.310178961561" y2="23.164801755993" style="stroke:rgb(0,0,0);stroke-width:1" />
<line x1="-11.349762493489" y1="22.275163104709" x2="47.552825814758" y2="15.450849718747" style="stroke:rgb(0,0,0);stroke-width:1" />
<line x1="-1.5697629882329" y1="24.950668210707" x2="49.463616648149" y2="7.3041514281206" style="stroke:rgb(0,0,0);stroke-width:1" />
<line x1="8.4684480061323" y1="23.522019223856" x2="49.989034173742" y2="-1.0471209941679" style="stroke:rgb(0,0,0);stroke-width:1" />
<line x1="17.113677648217" y1="18.224215685535" x2="49.114362536434" y2="-9.3690657292862" style="stroke:rgb(0,0,0);stroke-width:1" />
<line x1="22.9438656421" y1="9.9286972658696" x2="46.864099474595" y2="-17.428602366091" style="stroke:rgb(0,0,0);stroke-width:1" />
<line x1="25" y1="-2.4508410498862E-14" x2="43.301270189222" y2="-25" style="stroke:rgb(0,0,0);stroke-width:1" />
<line x1="22.9438656421" y1="-9.9286972658694" x2="38.525662138789" y2="-31.871199487434" style="stroke:rgb(0,0,0);stroke-width:1" />
<line x1="17.113677648217" y1="-18.224215685535" x2="32.671030199505" y2="-37.849752782588" style="stroke:rgb(0,0,0);stroke-width:1" />
<line x1="8.4684480061324" y1="-23.522019223856" x2="25.901350468657" y2="-42.768213008025" style="stroke:rgb(0,0,0);stroke-width:1" />
<line x1="-1.5697629882328" y1="-24.950668210707" x2="18.406227634234" y2="-46.488824294413" style="stroke:rgb(0,0,0);stroke-width:1" />
<line x1="-11.349762493489" y1="-22.275163104709" x2="10.395584540888" y2="-48.90738003669" style="stroke:rgb(0,0,0);stroke-width:1" />
<line x1="-19.262831069395" y1="-15.935599743717" x2="2.09378268646" y2="-49.956141504943" style="stroke:rgb(0,0,0);stroke-width:1" />
<line x1="-24.007342141924" y1="-6.9747776509807" x2="-6.2666616782152" y2="-49.605735065724" style="stroke:rgb(0,0,0);stroke-width:1" />
<line x1="-24.802867532862" y1="3.1333308391075" x2="-14.451589847224" y2="-47.865974876603" style="stroke:rgb(0,0,0);stroke-width:1" />
<line x1="-21.518550675099" y1="12.726035393759" x2="-22.231758959246" y2="-44.785588011971" style="stroke:rgb(0,0,0);stroke-width:1" />
<line x1="-14.694631307312" y1="20.225424859374" x2="-29.389262614624" y2="-40.450849718747" style="stroke:rgb(0,0,0);stroke-width:1" />
<line x1="-5.4535810349137" y1="24.397919048469" x2="-35.72363398164" y2="-34.983167025668" style="stroke:rgb(0,0,0);stroke-width:1" />
<line x1="4.6845328646432" y1="24.557181268217" x2="-41.057460456685" y2="-28.535678384222" style="stroke:rgb(0,0,0);stroke-width:1" />
<line x1="14.052084446303" y1="20.677014356864" x2="-45.241352623301" y2="-21.288964578254" style="stroke:rgb(0,0,0);stroke-width:1" />
<line x1="21.10819813755" y1="13.395669874475" x2="-48.158128339883" y2="-13.445991030763" style="stroke:rgb(0,0,0);stroke-width:1" />
<line x1="24.692208514878" y1="3.9108616260059" x2="-49.726094768414" y2="-5.2264231633826" style="stroke:rgb(0,0,0);stroke-width:1" />
<line x1="24.214579028216" y1="-6.2172471791214" x2="-49.901336421414" y2="3.1395259764656" style="stroke:rgb(0,0,0);stroke-width:1" />
<line x1="19.753875309392" y1="-15.322676341324" x2="-48.678945143658" y2="11.417543505533" style="stroke:rgb(0,0,0);stroke-width:1" />
<line x1="12.043841852543" y1="-21.907667001097" x2="-46.093157579425" y2="19.375779322605" style="stroke:rgb(0,0,0);stroke-width:1" />
<line x1="2.352707832963" y1="-24.889049115077" x2="-42.216396275101" y2="26.79133974895" style="stroke:rgb(0,0,0);stroke-width:1" />
<line x1="-7.7254248593736" y1="-23.776412907379" x2="-37.15724127387" y2="33.456530317943" style="stroke:rgb(0,0,0);stroke-width:1" />
<line x1="-16.532796633091" y1="-18.752776740762" x2="-31.057389013916" y2="39.184672866292" style="stroke:rgb(0,0,0);stroke-width:1" />
<line x1="-22.62067631165" y1="-10.644482289127" x2="-24.087683705086" y2="43.815334002193" style="stroke:rgb(0,0,0);stroke-width:1" />
<line x1="-24.987664009143" y1="-0.78526897695332" x2="-16.443332336929" y2="47.218818511874" style="stroke:rgb(0,0,0);stroke-width:1" />
<line x1="-23.244412147206" y1="9.2031138171168" x2="-8.3384373358051" y2="49.299801853525" style="stroke:rgb(0,0,0);stroke-width:1" />
<line x1="-17.677669529664" y1="17.677669529664" x2="-2.4492935982947E-14" y2="50" style="stroke:rgb(0,0,0);stroke-width:1" />
<line x1="-9.203113817117" y1="23.244412147206" x2="8.3384373358051" y2="49.299801853525" style="stroke:rgb(0,0,0);stroke-width:1" />
<line x1="0.78526897695313" y1="24.987664009143" x2="16.443332336929" y2="47.218818511874" style="stroke:rgb(0,0,0);stroke-width:1" />
<line x1="10.644482289127" y1="22.620676311651" x2="24.087683705086" y2="43.815334002193" style="stroke:rgb(0,0,0);stroke-width:1" />
<line x1="18.752776740761" y1="16.532796633091" x2="31.057389013915" y2="39.184672866292" style="stroke:rgb(0,0,0);stroke-width:1" />
<line x1="23.776412907379" y1="7.7254248593737" x2="37.15724127387" y2="33.456530317943" style="stroke:rgb(0,0,0);stroke-width:1" />
<line x1="24.889049115077" y1="-2.3527078329628" x2="42.216396275101" y2="26.79133974895" style="stroke:rgb(0,0,0);stroke-width:1" />
<line x1="21.907667001097" y1="-12.043841852543" x2="46.093157579425" y2="19.375779322605" style="stroke:rgb(0,0,0);stroke-width:1" />
<line x1="15.322676341324" y1="-19.753875309392" x2="48.678945143658" y2="11.417543505533" style="stroke:rgb(0,0,0);stroke-width:1" />
<line x1="6.2172471791215" y1="-24.214579028216" x2="49.901336421414" y2="3.1395259764658" style="stroke:rgb(0,0,0);stroke-width:1" />
<line x1="-3.9108616260057" y1="-24.692208514878" x2="49.726094768414" y2="-5.2264231633826" style="stroke:rgb(0,0,0);stroke-width:1" />
<line x1="-13.395669874475" y1="-21.10819813755" x2="48.158128339883" y2="-13.445991030763" style="stroke:rgb(0,0,0);stroke-width:1" />
<line x1="-20.677014356864" y1="-14.052084446303" x2="45.241352623301" y2="-21.288964578254" style="stroke:rgb(0,0,0);stroke-width:1" />
<line x1="-24.557181268217" y1="-4.6845328646433" x2="41.057460456685" y2="-28.535678384222" style="stroke:rgb(0,0,0);stroke-width:1" />
<line x1="-24.397919048469" y1="5.4535810349136" x2="35.72363398164" y2="-34.983167025668" style="stroke:rgb(0,0,0);stroke-width:1" />
<line x1="-20.225424859374" y1="14.694631307312" x2="29.389262614624" y2="-40.450849718747" style="stroke:rgb(0,0,0);stroke-width:1" />
<line x1="-12.726035393759" y1="21.518550675099" x2="22.231758959246" y2="-44.785588011971" style="stroke:rgb(0,0,0);stroke-width:1" />
<line x1="-3.1333308391078" y1="24.802867532862" x2="14.451589847224" y2="-47.865974876603" style="stroke:rgb(0,0,0);stroke-width:1" />
<line x1="6.9747776509807" y1="24.007342141924" x2="6.2666616782152" y2="-49.605735065724" style="stroke:rgb(0,0,0);stroke-width:1" />
<line x1="15.935599743717" y1="19.262831069395" x2="-2.09378268646" y2="-49.956141504943" style="stroke:rgb(0,0,0);stroke-width:1" />
<line x1="22.275163104709" y1="11.349762493489" x2="-10.395584540888" y2="-48.90738003669" style="stroke:rgb(0,0,0);stroke-width:1" />
<line x1="24.950668210707" y1="1.5697629882329" x2="-18.406227634234" y2="-46.488824294413" style="stroke:rgb(0,0,0);stroke-width:1" />
<line x1="23.522019223856" y1="-8.468448006132" x2="-25.901350468656" y2="-42.768213008025" style="stroke:rgb(0,0,0);stroke-width:1" />
<line x1="18.224215685535" y1="-17.113677648217" x2="-32.671030199505" y2="-37.849752782588" style="stroke:rgb(0,0,0);stroke-width:1" />
<line x1="9.9286972658696" y1="-22.943865642099" x2="-38.52566213879" y2="-31.871199487434" style="stroke:rgb(0,0,0);stroke-width:1" />
<line x1="-4.9016820997724E-14" y1="-25" x2="-43.301270189222" y2="-25" style="stroke:rgb(0,0,0);stroke-width:1" />
<line x1="-9.9286972658692" y1="-22.9438656421" x2="-46.864099474595" y2="-17.428602366091" style="stroke:rgb(0,0,0);stroke-width:1" />
<line x1="-18.224215685535" y1="-17.113677648217" x2="-49.114362536434" y2="-9.3690657292863" style="stroke:rgb(0,0,0);stroke-width:1" />
<line x1="-23.522019223856" y1="-8.4684480061324" x2="-49.989034173742" y2="-1.0471209941679" style="stroke:rgb(0,0,0);stroke-width:1" />
<line x1="-24.950668210707" y1="1.5697629882328" x2="-49.463616648149" y2="7.3041514281205" style="stroke:rgb(0,0,0);stroke-width:1" />
<line x1="-22.275163104709" y1="11.349762493489" x2="-47.552825814758" y2="15.450849718747" style="stroke:rgb(0,0,0);stroke-width:1" />
<line x1="-15.935599743717" y1="19.262831069395" x2="-44.310178961561" y2="23.164801755993" style="stroke:rgb(0,0,0);stroke-width:1" />
<line x1="-6.9747776509809" y1="24.007342141924" x2="-39.82649590121" y2="30.229955743119" style="stroke:rgb(0,0,0);stroke-width:1" />
<line x1="3.1333308391075" y1="24.802867532862" x2="-34.227355296434" y2="36.448431371071" style="stroke:rgb(0,0,0);stroke-width:1" />
<line x1="12.726035393759" y1="21.518550675099" x2="-27.669577462167" y2="41.646062035505" style="stroke:rgb(0,0,0);stroke-width:1" />
<line x1="20.225424859374" y1="14.694631307312" x2="-20.33683215379" y2="45.67727288213" style="stroke:rgb(0,0,0);stroke-width:1" />
<line x1="24.397919048469" y1="5.4535810349138" x2="-12.434494358243" y2="48.429158056432" style="stroke:rgb(0,0,0);stroke-width:1" />
<line x1="24.557181268217" y1="-4.684532864643" x2="-4.1838921666157" y2="49.824642962475" style="stroke:rgb(0,0,0);stroke-width:1" />
<line x1="20.677014356864" y1="-14.052084446303" x2="4.1838921666157" y2="49.824642962475" style="stroke:rgb(0,0,0);stroke-width:1" />
<line x1="13.395669874475" y1="-21.10819813755" x2="12.434494358243" y2="48.429158056432" style="stroke:rgb(0,0,0);stroke-width:1" />
<line x1="3.9108616260059" y1="-24.692208514878" x2="20.33683215379" y2="45.67727288213" style="stroke:rgb(0,0,0);stroke-width:1" />
<line x1="-6.2172471791212" y1="-24.214579028216" x2="27.669577462167" y2="41.646062035505" style="stroke:rgb(0,0,0);stroke-width:1" />
<line x1="-15.322676341324" y1="-19.753875309392" x2="34.227355296434" y2="36.448431371071" style="stroke:rgb(0,0,0);stroke-width:1" />
<line x1="-21.907667001097" y1="-12.043841852543" x2="39.82649590121" y2="30.229955743119" style="stroke:rgb(0,0,0);stroke-width:1" />
<line x1="-24.889049115077" y1="-2.3527078329631" x2="44.310178961561" y2="23.164801755993" style="stroke:rgb(0,0,0);stroke-width:1" />
<line x1="-23.776412907379" y1="7.7254248593736" x2="47.552825814758" y2="15.450849718747" style="stroke:rgb(0,0,0);stroke-width:1" />
<line x1="-18.752776740762" y1="16.532796633091" x2="49.463616648149" y2="7.3041514281206" style="stroke:rgb(0,0,0);stroke-width:1" />
<line x1="-10.644482289127" y1="22.62067631165" x2="49.989034173742" y2="-1.0471209941678" style="stroke:rgb(0,0,0);stroke-width:1" />
<line x1="-0.7852689769533" y1="24.987664009143" x2="49.114362536434" y2="-9.3690657292861" style="stroke:rgb(0,0,0);stroke-width:1" />
<line x1="9.203113817117" y1="23.244412147206" x2="46.864099474595" y2="-17.428602366091" style="stroke:rgb(0,0,0);stroke-width:1" />
<line x1="17.677669529664" y1="17.677669529664" x2="43.301270189222" y2="-25" style="stroke:rgb(0,0,0);stroke-width:1" />
<line x1="23.244412147206" y1="9.2031138171171" x2="38.52566213879" y2="-31.871199487434" style="stroke:rgb(0,0,0);stroke-width:1" />
<line x1="24.987664009143" y1="-0.78526897695306" x2="32.671030199505" y2="-37.849752782588" style="stroke:rgb(0,0,0);stroke-width:1" />
<line x1="22.62067631165" y1="-10.644482289127" x2="25.901350468657" y2="-42.768213008025" style="stroke:rgb(0,0,0);stroke-width:1" />
<line x1="16.532796633091" y1="-18.752776740761" x2="18.406227634234" y2="-46.488824294413" style="stroke:rgb(0,0,0);stroke-width:1" />
<line x1="7.7254248593739" y1="-23.776412907379" x2="10.395584540888" y2="-48.90738003669" style="stroke:rgb(0,0,0);stroke-width:1" />
<line x1="-2.3527078329627" y1="-24.889049115077" x2="2.0937826864601" y2="-49.956141504943" style="stroke:rgb(0,0,0);stroke-width:1" />
<line x1="-12.043841852543" y1="-21.907667001097" x2="-6.2666616782151" y2="-49.605735065724" style="stroke:rgb(0,0,0);stroke-width:1" />
<line x1="-19.753875309392" y1="-15.322676341324" x2="-14.451589847224" y2="-47.865974876603" style="stroke:rgb(0,0,0);stroke-width:1" />
<line x1="-24.214579028216" y1="-6.2172471791216" x2="-22.231758959246" y2="-44.785588011971" style="stroke:rgb(0,0,0);stroke-width:1" />
<line x1="-24.692208514878" y1="3.9108616260057" x2="-29.389262614624" y2="-40.450849718747" style="stroke:rgb(0,0,0);stroke-width:1" />
<line x1="-21.10819813755" y1="13.395669874475" x2="-35.72363398164" y2="-34.983167025668" style="stroke:rgb(0,0,0);stroke-width:1" />
<line x1="-14.052084446303" y1="20.677014356864" x2="-41.057460456685" y2="-28.535678384222" style="stroke:rgb(0,0,0);stroke-width:1" />
<line x1="-4.6845328646434" y1="24.557181268217" x2="-45.241352623301" y2="-21.288964578254" style="stroke:rgb(0,0,0);stroke-width:1" />
<line x1="5.4535810349136" y1="24.397919048469" x2="-48.158128339883" y2="-13.445991030763" style="stroke:rgb(0,0,0);stroke-width:1" />
<line x1="14.694631307312" y1="20.225424859374" x2="-49.726094768414" y2="-5.2264231633827" style="stroke:rgb(0,0,0);stroke-width:1" />
<line x1="21.518550675099" y1="12.726035393759" x2="-49.901336421414" y2="3.1395259764655" style="stroke:rgb(0,0,0);stroke-width:1" />
<line x1="24.802867532862" y1="3.133330839108" x2="-48.678945143658" y2="11.417543505533" style="stroke:rgb(0,0,0);stroke-width:1" />
<line x1="24.007342141924" y1="-6.9747776509807" x2="-46.093157579425" y2="19.375779322605" style="stroke:rgb(0,0,0);stroke-width:1" />
<line x1="19.262831069395" y1="-15.935599743717" x2="-42.216396275101" y2="26.79133974895" style="stroke:rgb(0,0,0);stroke-width:1" />
<line x1="11.349762493489" y1="-22.275163104709" x2="-37.15724127387" y2="33.456530317943" style="stroke:rgb(0,0,0);stroke-width:1" />
<line x1="1.5697629882331" y1="-24.950668210707" x2="-31.057389013916" y2="39.184672866292" style="stroke:rgb(0,0,0);stroke-width:1" />
<line x1="-8.4684480061322" y1="-23.522019223856" x2="-24.087683705086" y2="43.815334002193" style="stroke:rgb(0,0,0);stroke-width:1" />
<line x1="-17.113677648217" y1="-18.224215685535" x2="-16.443332336929" y2="47.218818511874" style="stroke:rgb(0,0,0);stroke-width:1" />
<line x1="-22.9438656421" y1="-9.9286972658694" x2="-8.3384373358052" y2="49.299801853525" style="stroke:rgb(0,0,0);stroke-width:1" />
<line x1="-25" y1="-1.0411045244344E-13" x2="-4.8985871965894E-14" y2="50" style="stroke:rgb(0,0,0);stroke-width:1" />
<line x1="-22.9438656421" y1="9.9286972658694" x2="8.3384373358049" y2="49.299801853525" style="stroke:rgb(0,0,0);stroke-width:1" />
<line x1="-17.113677648217" y1="18.224215685535" x2="16.443332336929" y2="47.218818511874" style="stroke:rgb(0,0,0);stroke-width:1" />
<line x1="-8.4684480061323" y1="23.522019223856" x2="24.087683705086" y2="43.815334002193" style="stroke:rgb(0,0,0);stroke-width:1" />
<line x1="1.5697629882327" y1="24.950668210707" x2="31.057389013915" y2="39.184672866292" style="stroke:rgb(0,0,0);stroke-width:1" />
<line x1="11.349762493489" y1="22.275163104709" x2="37.15724127387" y2="33.456530317943" style="stroke:rgb(0,0,0);stroke-width:1" />
<line x1="19.262831069395" y1="15.935599743717" x2="42.216396275101" y2="26.79133974895" style="stroke:rgb(0,0,0);stroke-width:1" />
<line x1="24.007342141924" y1="6.9747776509809" x2="46.093157579425" y2="19.375779322605" style="stroke:rgb(0,0,0);stroke-width:1" />
<line x1="24.802867532862" y1="-3.1333308391076" x2="48.678945143658" y2="11.417543505533" style="stroke:rgb(0,0,0);stroke-width:1" />
<line x1="21.518550675099" y1="-12.726035393759" x2="49.901336421414" y2="3.139525976466" style="stroke:rgb(0,0,0);stroke-width:1" />
<line x1="14.694631307312" y1="-20.225424859374" x2="49.726094768414" y2="-5.2264231633826" style="stroke:rgb(0,0,0);stroke-width:1" />
<line x1="5.4535810349138" y1="-24.397919048469" x2="48.158128339883" y2="-13.445991030763" style="stroke:rgb(0,0,0);stroke-width:1" />
<line x1="-4.684532864643" y1="-24.557181268217" x2="45.241352623301" y2="-21.288964578254" style="stroke:rgb(0,0,0);stroke-width:1" />
<line x1="-14.052084446303" y1="-20.677014356864" x2="41.057460456685" y2="-28.535678384222" style="stroke:rgb(0,0,0);stroke-width:1" />
<line x1="-21.10819813755" y1="-13.395669874475" x2="35.72363398164" y2="-34.983167025668" style="stroke:rgb(0,0,0);stroke-width:1" />
<line x1="-24.692208514878" y1="-3.9108616260061" x2="29.389262614624" y2="-40.450849718747" style="stroke:rgb(0,0,0);stroke-width:1" />
<line x1="-24.214579028216" y1="6.2172471791212" x2="22.231758959246" y2="-44.785588011971" style="stroke:rgb(0,0,0);stroke-width:1" />
<line x1="-19.753875309392" y1="15.322676341324" x2="14.451589847224" y2="-47.865974876603" style="stroke:rgb(0,0,0);stroke-width:1" />
<line x1="-12.043841852543" y1="21.907667001097" x2="6.2666616782154" y2="-49.605735065724" style="stroke:rgb(0,0,0);stroke-width:1" />
<line x1="-2.3527078329629" y1="24.889049115077" x2="-2.0937826864596" y2="-49.956141504943" style="stroke:rgb(0,0,0);stroke-width:1" />
<line x1="7.7254248593735" y1="23.776412907379" x2="-10.395584540888" y2="-48.90738003669" style="stroke:rgb(0,0,0);stroke-width:1" />
<line x1="16.532796633091" y1="18.752776740762" x2="-18.406227634234" y2="-46.488824294413" style="stroke:rgb(0,0,0);stroke-width:1" />
<line x1="22.62067631165" y1="10.644482289127" x2="-25.901350468657" y2="-42.768213008025" style="stroke:rgb(0,0,0);stroke-width:1" />
<line x1="24.987664009143" y1="0.78526897695327" x2="-32.671030199505" y2="-37.849752782588" style="stroke:rgb(0,0,0);stroke-width:1" />
<line x1="23.244412147206" y1="-9.203113817117" x2="-38.525662138789" y2="-31.871199487435" style="stroke:rgb(0,0,0);stroke-width:1" />
<line x1="17.677669529664" y1="-17.677669529663" x2="-43.301270189222" y2="-25" style="stroke:rgb(0,0,0);stroke-width:1" />
<line x1="9.2031138171172" y1="-23.244412147206" x2="-46.864099474595" y2="-17.428602366091" style="stroke:rgb(0,0,0);stroke-width:1" />
<line x1="-0.78526897695309" y1="-24.987664009143" x2="-49.114362536434" y2="-9.3690657292863" style="stroke:rgb(0,0,0);stroke-width:1" />
<line x1="-10.644482289127" y1="-22.62067631165" x2="-49.989034173742" y2="-1.0471209941681" style="stroke:rgb(0,0,0);stroke-width:1" />
<line x1="-18.752776740761" y1="-16.532796633092" x2="-49.463616648149" y2="7.3041514281203" style="stroke:rgb(0,0,0);stroke-width:1" />
<line x1="-23.776412907379" y1="-7.725424859374" x2="-47.552825814758" y2="15.450849718747" style="stroke:rgb(0,0,0);stroke-width:1" />
<line x1="-24.889049115077" y1="2.3527078329627" x2="-44.310178961561" y2="23.164801755993" style="stroke:rgb(0,0,0);stroke-width:1" />
<line x1="-21.907667001097" y1="12.043841852543" x2="-39.82649590121" y2="30.229955743119" style="stroke:rgb(0,0,0);stroke-width:1" />
<line x1="-15.322676341325" y1="19.753875309392" x2="-34.227355296434" y2="36.448431371071" style="stroke:rgb(0,0,0);stroke-width:1" />
<line x1="-6.2172471791217" y1="24.214579028216" x2="-27.669577462167" y2="41.646062035505" style="stroke:rgb(0,0,0);stroke-width:1" />
<line x1="3.9108616260059" y1="24.692208514878" x2="-20.33683215379" y2="45.67727288213" style="stroke:rgb(0,0,0);stroke-width:1" />
<line x1="13.395669874475" y1="21.10819813755" x2="-12.434494358243" y2="48.429158056432" style="stroke:rgb(0,0,0);stroke-width:1" />
<line x1="20.677014356864" y1="14.052084446303" x2="-4.1838921666159" y2="49.824642962475" style="stroke:rgb(0,0,0);stroke-width:1" />
<line x1="24.557181268217" y1="4.6845328646432" x2="4.1838921666158" y2="49.824642962475" style="stroke:rgb(0,0,0);stroke-width:1" />
<line x1="24.397919048469" y1="-5.4535810349133" x2="12.434494358243" y2="48.429158056432" style="stroke:rgb(0,0,0);stroke-width:1" />
<line x1="20.225424859374" y1="-14.694631307312" x2="20.33683215379" y2="45.67727288213" style="stroke:rgb(0,0,0);stroke-width:1" />
<line x1="12.72603539376" y1="-21.518550675098" x2="27.669577462167" y2="41.646062035505" style="stroke:rgb(0,0,0);stroke-width:1" />
<line x1="3.1333308391078" y1="-24.802867532862" x2="34.227355296434" y2="36.448431371071" style="stroke:rgb(0,0,0);stroke-width:1" />
<line x1="-6.9747776509807" y1="-24.007342141924" x2="39.82649590121" y2="30.229955743119" style="stroke:rgb(0,0,0);stroke-width:1" />
<line x1="-15.935599743717" y1="-19.262831069395" x2="44.310178961561" y2="23.164801755993" style="stroke:rgb(0,0,0);stroke-width:1" />
<line x1="-22.275163104709" y1="-11.349762493489" x2="47.552825814758" y2="15.450849718747" style="stroke:rgb(0,0,0);stroke-width:1" />
<line x1="-24.950668210707" y1="-1.569762988233" x2="49.463616648149" y2="7.3041514281208" style="stroke:rgb(0,0,0);stroke-width:1" />
<line x1="-23.522019223856" y1="8.4684480061319" x2="49.989034173742" y2="-1.0471209941678" style="stroke:rgb(0,0,0);stroke-width:1" />
<line x1="-18.224215685535" y1="17.113677648217" x2="49.114362536434" y2="-9.3690657292864" style="stroke:rgb(0,0,0);stroke-width:1" />
<line x1="-9.9286972658699" y1="22.943865642099" x2="46.864099474595" y2="-17.428602366091" style="stroke:rgb(0,0,0);stroke-width:1" />
<line x1="9.8033641995447E-14" y1="25" x2="43.301270189222" y2="-25" style="stroke:rgb(0,0,0);stroke-width:1" />
<line x1="9.9286972658694" y1="22.9438656421" x2="38.52566213879" y2="-31.871199487434" style="stroke:rgb(0,0,0);stroke-width:1" />
<line x1="18.224215685535" y1="17.113677648218" x2="32.671030199505" y2="-37.849752782588" style="stroke:rgb(0,0,0);stroke-width:1" />
<line x1="23.522019223856" y1="8.4684480061324" x2="25.901350468656" y2="-42.768213008025" style="stroke:rgb(0,0,0);stroke-width:1" />
<line x1="24.950668210707" y1="-1.5697629882325" x2="18.406227634234" y2="-46.488824294413" style="stroke:rgb(0,0,0);stroke-width:1" />
<line x1="22.275163104709" y1="-11.349762493489" x2="10.395584540888" y2="-48.90738003669" style="stroke:rgb(0,0,0);stroke-width:1" />
<line x1="15.935599743718" y1="-19.262831069395" x2="2.0937826864601" y2="-49.956141504943" style="stroke:rgb(0,0,0);stroke-width:1" />
<line x1="6.9747776509809" y1="-24.007342141924" x2="-6.2666616782149" y2="-49.605735065724" style="stroke:rgb(0,0,0);stroke-width:1" />
<line x1="-3.1333308391076" y1="-24.802867532862" x2="-14.451589847223" y2="-47.865974876603" style="stroke:rgb(0,0,0);stroke-width:1" />
<line x1="-12.726035393759" y1="-21.518550675099" x2="-22.231758959246" y2="-44.785588011971" style="stroke:rgb(0,0,0);stroke-width:1" />
<line x1="-20.225424859374" y1="-14.694631307312" x2="-29.389262614624" y2="-40.450849718747" style="stroke:rgb(0,0,0);stroke-width:1" />
<line x1="-24.397919048469" y1="-5.4535810349138" x2="-35.72363398164" y2="-34.983167025668" style="stroke:rgb(0,0,0);stroke-width:1" />
<line x1="-24.557181268217" y1="4.6845328646427" x2="-41.057460456685" y2="-28.535678384222" style="stroke:rgb(0,0,0);stroke-width:1" />
<line x1="-20.677014356864" y1="14.052084446303" x2="-45.241352623301" y2="-21.288964578254" style="stroke:rgb(0,0,0);stroke-width:1" />
<line x1="-13.395669874475" y1="21.10819813755" x2="-48.158128339883" y2="-13.445991030763" style="stroke:rgb(0,0,0);stroke-width:1" />
<line x1="-3.9108616260061" y1="24.692208514878" x2="-49.726094768414" y2="-5.2264231633829" style="stroke:rgb(0,0,0);stroke-width:1" />
<line x1="6.2172471791213" y1="24.214579028216" x2="-49.901336421414" y2="3.1395259764657" style="stroke:rgb(0,0,0);stroke-width:1" />
<line x1="15.322676341324" y1="19.753875309392" x2="-48.678945143658" y2="11.417543505533" style="stroke:rgb(0,0,0);stroke-width:1" />
<line x1="21.907667001097" y1="12.043841852543" x2="-46.093157579425" y2="19.375779322605" style="stroke:rgb(0,0,0);stroke-width:1" />
<line x1="24.889049115077" y1="2.3527078329632" x2="-42.216396275101" y2="26.79133974895" style="stroke:rgb(0,0,0);stroke-width:1" />
<line x1="23.776412907379" y1="-7.7254248593739" x2="-37.15724127387" y2="33.456530317943" style="stroke:rgb(0,0,0);stroke-width:1" />
<line x1="18.752776740762" y1="-16.532796633091" x2="-31.057389013916" y2="39.184672866292" style="stroke:rgb(0,0,0);stroke-width:1" />
<line x1="10.644482289127" y1="-22.62067631165" x2="-24.087683705086" y2="43.815334002193" style="stroke:rgb(0,0,0);stroke-width:1" />
<line x1="0.78526897695325" y1="-24.987664009143" x2="-16.443332336929" y2="47.218818511874" style="stroke:rgb(0,0,0);stroke-width:1" />
<line x1="-9.2031138171167" y1="-23.244412147206" x2="-8.338437335805" y2="49.299801853525" style="stroke:rgb(0,0,0);stroke-width:1" />
<line x1="-17.677669529664" y1="-17.677669529664" x2="-7.3478807948841E-14" y2="50" style="stroke:rgb(0,0,0);stroke-width:1" />
<line x1="-23.244412147206" y1="-9.2031138171172" x2="8.3384373358049" y2="49.299801853525" style="stroke:rgb(0,0,0);stroke-width:1" />
<line x1="-24.987664009143" y1="0.78526897695276" x2="16.443332336929" y2="47.218818511874" style="stroke:rgb(0,0,0);stroke-width:1" />
<line x1="-22.62067631165" y1="10.644482289127" x2="24.087683705086" y2="43.815334002193" style="stroke:rgb(0,0,0);stroke-width:1" />
<line x1="-16.532796633092" y1="18.752776740761" x2="31.057389013915" y2="39.184672866292" style="stroke:rgb(0,0,0);stroke-width:1" />
<line x1="-7.725424859374" y1="23.776412907379" x2="37.15724127387" y2="33.456530317943" style="stroke:rgb(0,0,0);stroke-width:1" />
<line x1="2.3527078329627" y1="24.889049115077" x2="42.216396275101" y2="26.79133974895" style="stroke:rgb(0,0,0);stroke-width:1" />
<line x1="12.043841852543" y1="21.907667001097" x2="46.093157579425" y2="19.375779322605" style="stroke:rgb(0,0,0);stroke-width:1" />
<line x1="19.753875309392" y1="15.322676341325" x2="48.678945143658" y2="11.417543505533" style="stroke:rgb(0,0,0);stroke-width:1" />
<line x1="24.214579028216" y1="6.2172471791217" x2="49.901336421414" y2="3.1395259764658" style="stroke:rgb(0,0,0);stroke-width:1" />
<line x1="24.692208514878" y1="-3.9108616260056" x2="49.726094768414" y2="-5.2264231633827" style="stroke:rgb(0,0,0);stroke-width:1" />
<line x1="21.10819813755" y1="-13.395669874475" x2="48.158128339883" y2="-13.445991030763" style="stroke:rgb(0,0,0);stroke-width:1" />
<line x1="14.052084446304" y1="-20.677014356864" x2="45.241352623301" y2="-21.288964578253" style="stroke:rgb(0,0,0);stroke-width:1" />
<line x1="4.6845328646435" y1="-24.557181268217" x2="41.057460456685" y2="-28.535678384221" style="stroke:rgb(0,0,0);stroke-width:1" />
<line x1="-5.4535810349133" y1="-24.397919048469" x2="35.72363398164" y2="-34.983167025668" style="stroke:rgb(0,0,0);stroke-width:1" />
<line x1="-14.694631307312" y1="-20.225424859374" x2="29.389262614624" y2="-40.450849718747" style="stroke:rgb(0,0,0);stroke-width:1" />
<line x1="-21.518550675098" y1="-12.72603539376" x2="22.231758959246" y2="-44.785588011971" style="stroke:rgb(0,0,0);stroke-width:1" />
<line x1="-24.802867532862" y1="-3.1333308391081" x2="14.451589847224" y2="-47.865974876603" style="stroke:rgb(0,0,0);stroke-width:1" />
<line x1="-24.007342141924" y1="6.9747776509808" x2="6.2666616782154" y2="-49.605735065724" style="stroke:rgb(0,0,0);stroke-width:1" />
<line x1="-19.262831069395" y1="15.935599743717" x2="-2.0937826864599" y2="-49.956141504943" style="stroke:rgb(0,0,0);stroke-width:1" />
<line x1="-11.349762493489" y1="22.275163104709" x2="-10.395584540888" y2="-48.90738003669" style="stroke:rgb(0,0,0);stroke-width:1" />
<line x1="-1.569762988233" y1="24.950668210707" x2="-18.406227634234" y2="-46.488824294413" style="stroke:rgb(0,0,0);stroke-width:1" />
<line x1="8.4684480061323" y1="23.522019223856" x2="-25.901350468656" y2="-42.768213008025" style="stroke:rgb(0,0,0);stroke-width:1" />
<line x1="17.113677648217" y1="18.224215685535" x2="-32.671030199505" y2="-37.849752782588" style="stroke:rgb(0,0,0);stroke-width:1" />
<line x1="22.943865642099" y1="9.9286972658699" x2="-38.52566213879" y2="-31.871199487434" style="stroke:rgb(0,0,0);stroke-width:1" />
<line x1="25" y1="2.3272931538574E-13" x2="-43.301270189222" y2="-25" style="stroke:rgb(0,0,0);stroke-width:1" />
<line x1="22.9438656421" y1="-9.9286972658691" x2="-46.864099474595" y2="-17.428602366091" style="stroke:rgb(0,0,0);stroke-width:1" />
<line x1="17.113677648217" y1="-18.224215685535" x2="-49.114362536434" y2="-9.3690657292865" style="stroke:rgb(0,0,0);stroke-width:1" />
<line x1="8.4684480061324" y1="-23.522019223856" x2="-49.989034173742" y2="-1.047120994168" style="stroke:rgb(0,0,0);stroke-width:1" />
<line x1="-1.5697629882325" y1="-24.950668210707" x2="-49.463616648149" y2="7.3041514281207" style="stroke:rgb(0,0,0);stroke-width:1" />
<line x1="-11.349762493489" y1="-22.275163104709" x2="-47.552825814758" y2="15.450849718747" style="stroke:rgb(0,0,0);stroke-width:1" />
<line x1="-19.262831069395" y1="-15.935599743717" x2="-44.310178961561" y2="23.164801755993" style="stroke:rgb(0,0,0);stroke-width:1" />
<line x1="-24.007342141923" y1="-6.9747776509812" x2="-39.82649590121" y2="30.229955743118" style="stroke:rgb(0,0,0);stroke-width:1" />
<line x1="-24.802867532862" y1="3.1333308391073" x2="-34.227355296435" y2="36.44843137107" style="stroke:rgb(0,0,0);stroke-width:1" />
<line x1="-21.518550675099" y1="12.726035393759" x2="-27.669577462167" y2="41.646062035505" style="stroke:rgb(0,0,0);stroke-width:1" />
<line x1="-14.694631307312" y1="20.225424859373" x2="-20.33683215379" y2="45.67727288213" style="stroke:rgb(0,0,0);stroke-width:1" />
<line x1="-5.4535810349138" y1="24.397919048469" x2="-12.434494358243" y2="48.429158056432" style="stroke:rgb(0,0,0);stroke-width:1" />
<line x1="4.6845328646427" y1="24.557181268217" x2="-4.183892166616" y2="49.824642962475" style="stroke:rgb(0,0,0);stroke-width:1" />
<line x1="14.052084446303" y1="20.677014356864" x2="4.1838921666154" y2="49.824642962475" style="stroke:rgb(0,0,0);stroke-width:1" />
<line x1="21.10819813755" y1="13.395669874475" x2="12.434494358243" y2="48.429158056432" style="stroke:rgb(0,0,0);stroke-width:1" />
<line x1="24.692208514878" y1="3.9108616260057" x2="20.33683215379" y2="45.67727288213" style="stroke:rgb(0,0,0);stroke-width:1" />
<line x1="24.214579028216" y1="-6.2172471791213" x2="27.669577462167" y2="41.646062035505" style="stroke:rgb(0,0,0);stroke-width:1" />
<line x1="19.753875309393" y1="-15.322676341324" x2="34.227355296434" y2="36.448431371071" style="stroke:rgb(0,0,0);stroke-width:1" />
<line x1="12.043841852543" y1="-21.907667001096" x2="39.82649590121" y2="30.229955743119" style="stroke:rgb(0,0,0);stroke-width:1" />
<line x1="2.3527078329632" y1="-24.889049115077" x2="44.310178961561" y2="23.164801755993" style="stroke:rgb(0,0,0);stroke-width:1" />
<line x1="-7.7254248593735" y1="-23.776412907379" x2="47.552825814758" y2="15.450849718747" style="stroke:rgb(0,0,0);stroke-width:1" />
<line x1="-16.532796633091" y1="-18.752776740762" x2="49.463616648149" y2="7.3041514281208" style="stroke:rgb(0,0,0);stroke-width:1" />
<line x1="-22.62067631165" y1="-10.644482289127" x2="49.989034173742" y2="-1.0471209941678" style="stroke:rgb(0,0,0);stroke-width:1" />
<line x1="-24.987664009143" y1="-0.78526897695322" x2="49.114362536434" y2="-9.369065729286" style="stroke:rgb(0,0,0);stroke-width:1" />
<line x1="-23.244412147206" y1="9.2031138171168" x2="46.864099474595" y2="-17.428602366091" style="stroke:rgb(0,0,0);stroke-width:1" />
<line x1="-17.677669529664" y1="17.677669529664" x2="43.301270189222" y2="-25" style="stroke:rgb(0,0,0);stroke-width:1" />
<line x1="-9.2031138171175" y1="23.244412147206" x2="38.52566213879" y2="-31.871199487434" style="stroke:rgb(0,0,0);stroke-width:1" />
<line x1="0.78526897695278" y1="24.987664009143" x2="32.671030199505" y2="-37.849752782588" style="stroke:rgb(0,0,0);stroke-width:1" />
<line x1="10.644482289127" y1="22.62067631165" x2="25.901350468657" y2="-42.768213008025" style="stroke:rgb(0,0,0);stroke-width:1" />
<line x1="18.752776740761" y1="16.532796633092" x2="18.406227634234" y2="-46.488824294413" style="stroke:rgb(0,0,0);stroke-width:1" />
<line x1="23.776412907379" y1="7.725424859374" x2="10.395584540888" y2="-48.90738003669" style="stroke:rgb(0,0,0);stroke-width:1" />
<line x1="24.889049115077" y1="-2.3527078329627" x2="2.0937826864601" y2="-49.956141504943" style="stroke:rgb(0,0,0);stroke-width:1" />
<line x1="21.907667001097" y1="-12.043841852543" x2="-6.2666616782149" y2="-49.605735065724" style="stroke:rgb(0,0,0);stroke-width:1" />
<line x1="15.322676341325" y1="-19.753875309392" x2="-14.451589847223" y2="-47.865974876604" style="stroke:rgb(0,0,0);stroke-width:1" />
<line x1="6.217247179122" y1="-24.214579028216" x2="-22.231758959246" y2="-44.785588011971" style="stroke:rgb(0,0,0);stroke-width:1" />
<line x1="-3.9108616260056" y1="-24.692208514878" x2="-29.389262614624" y2="-40.450849718747" style="stroke:rgb(0,0,0);stroke-width:1" />
<line x1="-13.395669874475" y1="-21.10819813755" x2="-35.72363398164" y2="-34.983167025668" style="stroke:rgb(0,0,0);stroke-width:1" />
<line x1="-20.677014356864" y1="-14.052084446304" x2="-41.057460456685" y2="-28.535678384222" style="stroke:rgb(0,0,0);stroke-width:1" />
<line x1="-24.557181268217" y1="-4.6845328646435" x2="-45.241352623301" y2="-21.288964578254" style="stroke:rgb(0,0,0);stroke-width:1" />
<line x1="-24.397919048469" y1="5.4535810349133" x2="-48.158128339883" y2="-13.445991030763" style="stroke:rgb(0,0,0);stroke-width:1" />
<line x1="-20.225424859374" y1="14.694631307312" x2="-49.726094768414" y2="-5.2264231633829" style="stroke:rgb(0,0,0);stroke-width:1" />
<line x1="-12.72603539376" y1="21.518550675098" x2="-49.901336421414" y2="3.1395259764656" style="stroke:rgb(0,0,0);stroke-width:1" />
<line x1="-3.1333308391081" y1="24.802867532862" x2="-48.678945143658" y2="11.417543505533" style="stroke:rgb(0,0,0);stroke-width:1" />
<line x1="6.9747776509805" y1="24.007342141924" x2="-46.093157579425" y2="19.375779322605" style="stroke:rgb(0,0,0);stroke-width:1" />
<line x1="15.935599743717" y1="19.262831069395" x2="-42.216396275101" y2="26.79133974895" style="stroke:rgb(0,0,0);stroke-width:1" />
<line x1="22.275163104709" y1="11.349762493489" x2="-37.15724127387" y2="33.456530317943" style="stroke:rgb(0,0,0);stroke-width:1" />
<line x1="24.950668210707" y1="1.5697629882333" x2="-31.057389013916" y2="39.184672866292" style="stroke:rgb(0,0,0);stroke-width:1" />
<line x1="23.522019223856" y1="-8.4684480061323" x2="-24.087683705086" y2="43.815334002193" style="stroke:rgb(0,0,0);stroke-width:1" />
<line x1="18.224215685535" y1="-17.113677648217" x2="-16.443332336929" y2="47.218818511874" style="stroke:rgb(0,0,0);stroke-width:1" />
<line x1="9.9286972658699" y1="-22.943865642099" x2="-8.338437335805" y2="49.299801853525" style="stroke:rgb(0,0,0);stroke-width:1" />
<line x1="2.0822090488688E-13" y1="-25" x2="-9.7971743931788E-14" y2="50" style="stroke:rgb(0,0,0);stroke-width:1" />
</svg>