<?xml version="1.0" standalone="no"?>
<!DOCTYPE svg PUBLIC "-//W3C//DTD SVG 1.1//EN" "http://www.w3.org/Graphics/SVG/1.1/DTD/svg11.dtd"><svg width="100%" height="100%" version="1.1" 
xmlns="http://www.w3.org/2000/svg">
<path d="M0,200C15,200,15,236,30,236C45,236,45,235,60,235C75,235,75,222.5,90,222.5C105,222.5,105,243,120,243C135,243,135,236.5,150,236.5C165,236.5,165,252,180,252C195,252,195,243,210,243C225,243,225,224,240,224C255,224,255,237,270,237C285,237,285,240,300,240C315,240,315,242,330,242C345,242,345,250.5,360,250.5C375,250.5,375,259.5,390,259.5C405,259.5,405,235.5,420,235.5C435,235.5,435,242.5,450,242.5C465,242.5,465,242.5,480,242.5C495,242.5,495,255.5,510,255.5C525,255.5,525,225.5,540,225.5C555,225.5,555,228,570,228C585,228,585,242.5,600,242.5C615,242.5,615,200,630,200 C615,200,615,223.5,600,223.5C585,223.5,585,215,570,215C555,215,555,216.5,540,216.5C525,216.5,525,243.5,510,243.5C495,243.5,495,241.5,480,241.5C465,241.5,465,241.5,450,241.5C435,241.5,435,228.5,420,228.5C405,228.5,405,240.5,390,240.5C375,240.5,375,243.5,360,243.5C345,243.5,345,223,330,223C315,223,315,228,300,228C285,228,285,219,270,219C255,219,255,222,240,222C225,222,225,224,210,224C195,224,195,243,180,243C165,243,165,219.5,150,219.5C135,219.5,135,237,120,237C105,237,105,209.5,90,209.5C75,209.5,75,227,60,227C45,227,45,218,30,218C15,218,15,200,0,200" fill="#cfcd20" stroke="#cfcd20" stroke-width="1" />
<path d="M0,200C15,200,15,218,30,218C45,218,45,227,60,227C75,227,75,209.5,90,209.5C105,209.5,105,237,120,237C135,237,135,219.5,150,219.5C165,219.5,165,243,180,243C195,243,195,224,210,224C225,224,225,222,240,222C255,222,255,219,270,219C285,219,285,228,300,228C315,228,315,223,330,223C345,223,345,243.5,360,243.5C375,243.5,375,240.5,390,240.5C405,240.5,405,228.5,420,228.5C435,228.5,435,241.5,450,241.5C465,241.5,465,241.5,480,241.5C495,241.5,495,243.5,510,243.5C525,243.5,525,216.5,540,216.5C555,216.5,555,215,570,215C585,215,585,223.5,600,223.5C615,223.5,615,200,630,200 C615,200,615,208.5,600,208.5C585,208.5,585,203,570,203C555,203,555,196.5,540,196.5C525,196.5,525,231.5,510,231.5C495,231.5,495,230.5,480,230.5C465,230.5,465,236.5,450,236.5C435,236.5,435,216.5,420,216.5C405,216.5,405,228.5,390,228.5C375,228.5,375,230.5,360,230.5C345,230.5,345,222,330,222C315,222,315,214,300,214C285,214,285,216,270,216C255,216,255,202,240,202C225,202,225,209,210,209C195,209,195,224,180,224C165,224,165,206.5,150,206.5C135,206.5,135,220,120,220C105,220,105,204.5,90,204.5C75,204.5,75,210,60,210C45,210,45,205,30,205C15,205,15,200,0,200" fill="#c4ca42" stroke="#c4ca42" stroke-width="1" />
<path d="M0,200C15,200,15,205,30,205C45,205,45,210,60,210C75,210,75,204.5,90,204.5C105,204.5,105,220,120,220C135,220,135,206.5,150,206.5C165,206.5,165,224,180,224C195,224,195,209,210,209C225,209,225,202,240,202C255,202,255,216,270,216C285,216,285,214,300,214C315,214,315,222,330,222C345,222,345,230.5,360,230.5C375,230.5,375,228.5,390,228.5C405,228.5,405,216.5,420,216.5C435,216.5,435,236.5,450,236.5C465,236.5,465,230.5,480,230.5C495,230.5,495,231.5,510,231.5C525,231.5,525,196.5,540,196.5C555,196.5,555,203,570,203C585,203,585,208.5,600,208.5C615,208.5,615,200,630,200 C615,200,615,206.5,600,206.5C585,206.5,585,193,570,193C555,193,555,189.5,540,189.5C525,189.5,525,212.5,510,212.5C495,212.5,495,221.5,480,221.5C465,221.5,465,225.5,450,225.5C435,225.5,435,211.5,420,211.5C405,211.5,405,210.5,390,210.5C375,210.5,375,217.5,360,217.5C345,217.5,345,217,330,217C315,217,315,200,300,200C285,200,285,214,270,214C255,214,255,188,240,188C225,188,225,204,210,204C195,204,195,205,180,205C165,205,165,205.5,150,205.5C135,205.5,135,202,120,202C105,202,105,200.5,90,200.5C75,200.5,75,202,60,202C45,202,45,203,30,203C15,203,15,200,0,200" fill="#c81e72" stroke="#c81e72" stroke-width="1" />
<path d="M0,200C15,200,15,203,30,203C45,203,45,202,60,202C75,202,75,200.5,90,200.5C105,200.5,105,202,120,202C135,202,135,205.5,150,205.5C165,205.5,165,205,180,205C195,205,195,204,210,204C225,204,225,188,240,188C255,188,255,214,270,214C285,214,285,200,300,200C315,200,315,217,330,217C345,217,345,217.5,360,217.5C375,217.5,375,210.5,390,210.5C405,210.5,405,211.5,420,211.5C435,211.5,435,225.5,450,225.5C465,225.5,465,221.5,480,221.5C495,221.5,495,212.5,510,212.5C525,212.5,525,189.5,540,189.5C555,189.5,555,193,570,193C585,193,585,206.5,600,206.5C615,206.5,615,200,630,200 C615,200,615,202.5,600,202.5C585,202.5,585,188,570,188C555,188,555,183.5,540,183.5C525,183.5,525,194.5,510,194.5C495,194.5,495,202.5,480,202.5C465,202.5,465,217.5,450,217.5C435,217.5,435,196.5,420,196.5C405,196.5,405,196.5,390,196.5C375,196.5,375,207.5,360,207.5C345,207.5,345,201,330,201C315,201,315,193,300,193C285,193,285,212,270,212C255,212,255,185,240,185C225,185,225,184,210,184C195,184,195,195,180,195C165,195,165,204.5,150,204.5C135,204.5,135,191,120,191C105,191,105,182.5,90,182.5C75,182.5,75,197,60,197C45,197,45,200,30,200C15,200,15,200,0,200" fill="#eccbc8" stroke="#eccbc8" stroke-width="1" />
<path d="M0,200C15,200,15,200,30,200C45,200,45,197,60,197C75,197,75,182.5,90,182.5C105,182.5,105,191,120,191C135,191,135,204.5,150,204.5C165,204.5,165,195,180,195C195,195,195,184,210,184C225,184,225,185,240,185C255,185,255,212,270,212C285,212,285,193,300,193C315,193,315,201,330,201C345,201,345,207.5,360,207.5C375,207.5,375,196.5,390,196.5C405,196.5,405,196.5,420,196.5C435,196.5,435,217.5,450,217.5C465,217.5,465,202.5,480,202.5C495,202.5,495,194.5,510,194.5C525,194.5,525,183.5,540,183.5C555,183.5,555,188,570,188C585,188,585,202.5,600,202.5C615,202.5,615,200,630,200 C615,200,615,188.5,600,188.5C585,188.5,585,187,570,187C555,187,555,183.5,540,183.5C525,183.5,525,189.5,510,189.5C495,189.5,495,196.5,480,196.5C465,196.5,465,204.5,450,204.5C435,204.5,435,179.5,420,179.5C405,179.5,405,191.5,390,191.5C375,191.5,375,189.5,360,189.5C345,189.5,345,194,330,194C315,194,315,186,300,186C285,186,285,196,270,196C255,196,255,182,240,182C225,182,225,167,210,167C195,167,195,180,180,180C165,180,165,199.5,150,199.5C135,199.5,135,190,120,190C105,190,105,181.5,90,181.5C75,181.5,75,197,60,197C45,197,45,196,30,196C15,196,15,200,0,200" fill="#a87ff6" stroke="#a87ff6" stroke-width="1" />
<path d="M0,200C15,200,15,196,30,196C45,196,45,197,60,197C75,197,75,181.5,90,181.5C105,181.5,105,190,120,190C135,190,135,199.5,150,199.5C165,199.5,165,180,180,180C195,180,195,167,210,167C225,167,225,182,240,182C255,182,255,196,270,196C285,196,285,186,300,186C315,186,315,194,330,194C345,194,345,189.5,360,189.5C375,189.5,375,191.5,390,191.5C405,191.5,405,179.5,420,179.5C435,179.5,435,204.5,450,204.5C465,204.5,465,196.5,480,196.5C495,196.5,495,189.5,510,189.5C525,189.5,525,183.5,540,183.5C555,183.5,555,187,570,187C585,187,585,188.5,600,188.5C615,188.5,615,200,630,200 C615,200,615,172.5,600,172.5C585,172.5,585,180,570,180C555,180,555,176.5,540,176.5C525,176.5,525,171.5,510,171.5C495,171.5,495,176.5,480,176.5C465,176.5,465,195.5,450,195.5C435,195.5,435,179.5,420,179.5C405,179.5,405,177.5,390,177.5C375,177.5,375,174.5,360,174.5C345,174.5,345,187,330,187C315,187,315,182,300,182C285,182,285,183,270,183C255,183,255,178,240,178C225,178,225,161,210,161C195,161,195,166,180,166C165,166,165,187.5,150,187.5C135,187.5,135,187,120,187C105,187,105,179.5,90,179.5C75,179.5,75,180,60,180C45,180,45,184,30,184C15,184,15,200,0,200" fill="#e4da3b" stroke="#e4da3b" stroke-width="1" />
<path d="M0,200C15,200,15,184,30,184C45,184,45,180,60,180C75,180,75,179.5,90,179.5C105,179.5,105,187,120,187C135,187,135,187.5,150,187.5C165,187.5,165,166,180,166C195,166,195,161,210,161C225,161,225,178,240,178C255,178,255,183,270,183C285,183,285,182,300,182C315,182,315,187,330,187C345,187,345,174.5,360,174.5C375,174.5,375,177.5,390,177.5C405,177.5,405,179.5,420,179.5C435,179.5,435,195.5,450,195.5C465,195.5,465,176.5,480,176.5C495,176.5,495,171.5,510,171.5C525,171.5,525,176.5,540,176.5C555,176.5,555,180,570,180C585,180,585,172.5,600,172.5C615,172.5,615,200,630,200 C615,200,615,163.5,600,163.5C585,163.5,585,175,570,175C555,175,555,175.5,540,175.5C525,175.5,525,156.5,510,156.5C495,156.5,495,162.5,480,162.5C465,162.5,465,177.5,450,177.5C435,177.5,435,179.5,420,179.5C405,179.5,405,158.5,390,158.5C375,158.5,375,164.5,360,164.5C345,164.5,345,168,330,168C315,168,315,166,300,166C285,166,285,167,270,167C255,167,255,176,240,176C225,176,225,160,210,160C195,160,195,156,180,156C165,156,165,176.5,150,176.5C135,176.5,135,176,120,176C105,176,105,179.5,90,179.5C75,179.5,75,165,60,165C45,165,45,174,30,174C15,174,15,200,0,200" fill="#167909" stroke="#167909" stroke-width="1" />
<path d="M0,200C15,200,15,174,30,174C45,174,45,165,60,165C75,165,75,179.5,90,179.5C105,179.5,105,176,120,176C135,176,135,176.5,150,176.5C165,176.5,165,156,180,156C195,156,195,160,210,160C225,160,225,176,240,176C255,176,255,167,270,167C285,167,285,166,300,166C315,166,315,168,330,168C345,168,345,164.5,360,164.5C375,164.5,375,158.5,390,158.5C405,158.5,405,179.5,420,179.5C435,179.5,435,177.5,450,177.5C465,177.5,465,162.5,480,162.5C495,162.5,495,156.5,510,156.5C525,156.5,525,175.5,540,175.5C555,175.5,555,175,570,175C585,175,585,163.5,600,163.5C615,163.5,615,200,630,200 C615,200,615,157.5,600,157.5C585,157.5,585,172,570,172C555,172,555,174.5,540,174.5C525,174.5,525,144.5,510,144.5C495,144.5,495,157.5,480,157.5C465,157.5,465,157.5,450,157.5C435,157.5,435,164.5,420,164.5C405,164.5,405,140.5,390,140.5C375,140.5,375,149.5,360,149.5C345,149.5,345,158,330,158C315,158,315,160,300,160C285,160,285,163,270,163C255,163,255,176,240,176C225,176,225,157,210,157C195,157,195,148,180,148C165,148,165,163.5,150,163.5C135,163.5,135,157,120,157C105,157,105,177.5,90,177.5C75,177.5,75,165,60,165C45,165,45,164,30,164C15,164,15,200,0,200" fill="#8f14e4" stroke="#8f14e4" stroke-width="1" />
</svg>