<!DOCTYPE svg PUBLIC "-//W3C//DTD SVG 1.1//EN" 
"http://www.w3.org/Graphics/SVG/1.1/DTD/svg11.dtd"> 
<svg xmlns="http://www.w3.org/2000/svg" version="1.1"><polygon points="100,100 106.8940365093,139.09802391895 111.34536596517,131.17113680476" fill="#fffaf5"/>
<polygon points="100,100 111.34536596517,131.17113680476 115.14019598331,126.22358867965" fill="#f1f0f0"/>
<polygon points="100,100 115.14019598331,126.22358867965 113.4831358508,116.06857558963" fill="#e4e7eb"/>
<polygon points="100,100 113.4831358508,116.06857558963 109.29034203841,107.79552257794" fill="#d6dee7"/>
<polygon points="100,100 109.29034203841,107.79552257794 120.0394934319,111.56980692733" fill="#c9d5e2"/>
<polygon points="100,100 120.0394934319,111.56980692733 140.8990113209,114.88602273173" fill="#bbccde"/>
<polygon points="100,100 140.8990113209,114.88602273173 198.48077530122,117.36481776669" fill="#aec3d9"/>
<polygon points="100,100 198.48077530122,117.36481776669 187.46482972737,100" fill="#a1b9d5"/>
<polygon points="100,100 187.46482972737,100 143.60786441009,92.310756933425" fill="#93b0d0"/>
<polygon points="100,100 143.60786441009,92.310756933425 150.89127980234,81.477088968236" fill="#86a7cc"/>
<polygon points="100,100 150.89127980234,81.477088968236 129.83657910972,82.773843019307" fill="#789ec7"/>
<polygon points="100,100 129.83657910972,82.773843019307 142.60179245132,64.252851666603" fill="#6b95c3"/>
<polygon points="100,100 142.60179245132,64.252851666603 134.69319368086,58.654261792269" fill="#5d8cbe"/>
<polygon points="100,100 134.69319368086,58.654261792269 113.41321432036,76.767631304318" fill="#5082ba"/>
<polygon points="100,100 113.41321432036,76.767631304318 109.99480616762,72.53949574263" fill="#4379b5"/>
<polygon points="100,100 109.99480616762,72.53949574263 103.36446503154,80.919170633886" fill="#3570b1"/>
<polygon points="100,100 103.36446503154,80.919170633886 100,73.639274279616" fill="#2867ac"/>
<polygon points="100,100 100,73.639274279616 96.278365921546,78.893564311594" fill="#1a5ea8"/>
<polygon points="100,100 96.278365921546,78.893564311594 91.524988395714,76.715096987608" fill="#0d55a3"/>
<polygon points="100,100 91.524988395714,76.715096987608 91.457262054914,85.203543843365" fill="#1a5ea8"/>
<polygon points="100,100 91.457262054914,85.203543843365 87.32136207924,84.890187708733" fill="#2867ac"/>
<polygon points="100,100 87.32136207924,84.890187708733 86.309751972202,88.512517929149" fill="#3570b1"/>
<polygon points="100,100 86.309751972202,88.512517929149 89.093810283184,93.703308431163" fill="#4379b5"/>
<polygon points="100,100 89.093810283184,93.703308431163 83.343180186515,93.937413390356" fill="#5082ba"/>
<polygon points="100,100 83.343180186515,93.937413390356 82.935222209374,96.991019255718" fill="#5d8cbe"/>
<polygon points="100,100 82.935222209374,96.991019255718 88.31861841467,100" fill="#6b95c3"/>
<polygon points="100,100 88.31861841467,100 91.639596547146,101.47416469835" fill="#789ec7"/>
<polygon points="100,100 91.639596547146,101.47416469835 89.34218808869,103.87912629812" fill="#86a7cc"/>
<polygon points="100,100 89.34218808869,103.87912629812 86.766372261953,107.64043853692" fill="#93b0d0"/>
<polygon points="100,100 86.766372261953,107.64043853692 89.416442349845,108.88065932079" fill="#a1b9d5"/>
<polygon points="100,100 89.416442349845,108.88065932079 93.875837462771,107.29849270537" fill="#aec3d9"/>
<polygon points="100,100 93.875837462771,107.29849270537 93.601435917338,111.08263808666" fill="#bbccde"/>
<polygon points="100,100 93.601435917338,111.08263808666 95.351021433984,112.77296363366" fill="#c9d5e2"/>
<polygon points="100,100 95.351021433984,112.77296363366 95.365226188399,126.28510845577" fill="#d6dee7"/>
<polygon points="100,100 95.365226188399,126.28510845577 100,122.21791015814" fill="#e4e7eb"/>
<polygon points="100,100 100,122.21791015814 106.8940365093,139.09802391895" fill="#f1f0f0"/>
</svg>